<svg viewBox="0 0 93 135" version="1.1" xmlns="http://www.w3.org/2000/svg" desc="Created with imagetracer.js version 1.2.6" ><path fill="rgb(119,102,60)" stroke="rgb(119,102,60)" stroke-width="0" opacity="0" d="M 73 0 L 92.5 0 L 93 4 L 89.5 3 L 87 4 Q 88.1 1.3 85.5 2 Q 83.8 -0.8 82 3.5 Q 82.8 5.8 80.5 5 L 79 5.5 L 78.5 4 L 77.5 6 L 75.5 5 L 72.5 8 Q 71.3 5.8 70 8.5 L 70.5 10 L 68.5 10 L 64.5 12 L 62.5 12 L 50.5 12 L 46 16.5 L 45.5 20 L 43.5 20 L 35 24.5 L 33.5 27 L 28 28 L 26.5 31 L 24 31.5 L 25 32.5 L 22 35.5 L 21 37.5 L 21.5 39 L 20.5 38 L 17 41.5 Q 17.8 44.1 14.5 43 L 13.5 46 L 12 45.5 Q 13.1 48.8 10.5 48 L 8 49 L 9 51.5 L 7 52.5 L 7.5 54 Q 6.3 51.8 5 54.5 L 1 60.5 L 1.5 62 Q -1.1 62.8 0 59.5 L 0 57.5 Q -1.3 52.8 1 51.5 L 0.5 50 L 2.5 51 Q 0.8 49 4.5 47 L 6 47 L 6 43 L 7.5 43 L 7.5 41 L 9 41.5 L 10.5 39 L 12 39 L 12 34 L 14.5 34 L 15.5 35 L 18.5 32 L 21.5 30 L 26.5 24 Q 28.8 24.8 28 22.5 L 29 20 L 34 20 L 34 18 L 36 18 Q 34.9 15.3 37.5 16 L 43.5 12 L 47 12 L 47.5 10 L 49 10.5 L 50.5 8 Q 51.7 10.3 53 7.5 L 53.5 6 L 57.5 8 L 60.5 5 L 63.5 6 L 68.5 2 L 71 3 L 71.5 1 L 73 1.5 L 73 0 Z " /><path fill="rgb(119,102,60)" stroke="rgb(119,102,60)" stroke-width="0" opacity="0" d="M 83.5 4 L 86 4.5 L 83.5 5 L 83.5 4 Z " /><path fill="rgb(100,85,53)" stroke="rgb(100,85,53)" stroke-width="0" opacity="0.7372549019607844" d="M 61.5 20 L 62.5 22 L 61.5 20 Z " /><path fill="rgb(100,85,53)" stroke="rgb(100,85,53)" stroke-width="0" opacity="0.7372549019607844" d="M 36.5 36 L 38 36.5 L 35.5 38 L 36.5 36 Z " /><path fill="rgb(100,85,53)" stroke="rgb(100,85,53)" stroke-width="0" opacity="0.7372549019607844" d="M 41.5 48 L 40.5 50 L 41.5 48 Z " /><path fill="rgb(100,85,53)" stroke="rgb(100,85,53)" stroke-width="0" opacity="0.7372549019607844" d="M 84.5 130 L 85 132.5 L 84 132.5 L 84.5 130 Z " /><path fill="rgb(138,122,72)" stroke="rgb(138,122,72)" stroke-width="0" opacity="0.13725490196078433" d="M 47.5 31 L 46.5 33 L 47.5 31 Z " /><path fill="rgb(138,122,72)" stroke="rgb(138,122,72)" stroke-width="0" opacity="0.13725490196078433" d="M 34.5 37 L 32.5 40 L 34.5 37 Z " /><path fill="rgb(138,122,72)" stroke="rgb(138,122,72)" stroke-width="0" opacity="0.13725490196078433" d="M 31.5 41 L 32 43.5 L 31 43.5 L 31.5 41 Z " /><path fill="rgb(138,122,72)" stroke="rgb(138,122,72)" stroke-width="0" opacity="0.13725490196078433" d="M 35.5 46 Q 42.5 44.5 42 47.5 L 40.5 47 Q 34.5 48.2 35.5 46 Z " /><path fill="rgb(138,122,72)" stroke="rgb(138,122,72)" stroke-width="0" opacity="0.13725490196078433" d="M 36.5 101 L 37.5 103 L 36.5 101 Z " /><path fill="rgb(138,122,72)" stroke="rgb(138,122,72)" stroke-width="0" opacity="0.13725490196078433" d="M 52.5 114 L 53.5 116 L 52.5 114 Z " /><path fill="rgb(146,140,76)" stroke="rgb(146,140,76)" stroke-width="0" opacity="0.996078431372549" d="M 75.5 40 L 78 40.5 L 77.5 42 L 79 42.5 L 78 44.5 L 81 47.5 L 80 48.5 Q 80.8 50.8 78.5 50 L 76.5 50 L 70.5 53 L 68 49.5 L 69 49.5 Q 68.3 51.8 70.5 51 L 71.5 48 L 75.5 49 L 76.5 47 L 75 46.5 L 76.5 46 L 78.5 47 L 77 44.5 L 75.5 40 Z " /><path fill="rgb(146,140,76)" stroke="rgb(146,140,76)" stroke-width="0" opacity="0.996078431372549" d="M 86.5 43 L 85.5 45 L 86.5 43 Z " /><path fill="rgb(146,140,76)" stroke="rgb(146,140,76)" stroke-width="0" opacity="0.996078431372549" d="M 53.5 46 L 54.5 48 L 56.5 47 L 56.5 48 L 55 48.5 L 55.5 50 Q 51.9 48.9 53.5 46 Z " /><path fill="rgb(146,140,76)" stroke="rgb(146,140,76)" stroke-width="0" opacity="0.996078431372549" d="M 47.5 52 L 49.5 55 L 51.5 54 L 51.5 55 L 50 55.5 L 51.5 58 L 53.5 54 L 54 55.5 L 52 58.5 L 53.5 61 L 55.5 61 L 59.5 64 L 61 63.5 L 60 66.5 L 60.5 68 L 64.5 67 L 67 64.5 L 64.5 63 L 64.5 65 L 62 63.5 L 65 61.5 L 65.5 60 L 67 60.5 Q 67.8 58.3 65.5 59 L 65.5 58 L 68 56.5 L 68.5 54 L 69 56.5 Q 65.5 58 68 59.5 L 66 62.5 L 68 63.5 L 68.5 62 L 71.5 64 L 72 59.5 Q 71.3 57.3 73.5 58 L 72.5 61 L 74.5 60 L 76.5 61 L 80.5 61 L 82 60.5 L 80.5 58 L 85.5 62 L 86.5 60 L 87 61.5 L 86.5 63 L 89.5 62 L 93 64.5 L 91.5 65 L 89 63.5 L 89.5 67 L 91.5 66 L 90.5 71 L 92.5 70 L 93 71.5 L 91 73.5 L 92.5 76 L 87.5 74 Q 84.7 75.3 87 76.5 L 86 79.5 L 86.5 81 L 84.5 80 L 82 81 L 80.5 84 L 79 80.5 L 77.5 77 L 76 77.5 Q 79.5 79 77 80.5 L 78 85 L 80 85.5 L 78.5 88 L 77 84.5 Q 78.1 81.2 75.5 82 L 73 81.5 L 73.5 80 Q 71.3 80.8 72 78.5 Q 76.3 76.3 74.5 74 L 77.5 73 L 78 75.5 L 78.5 77 L 79.5 74 L 81 74.5 L 78.5 71 L 76.5 72 L 74 71 L 71.5 77 L 70.5 73 Q 69.2 75.3 68 72.5 L 70 72 L 71 68 L 68 69.5 L 68.5 71 L 66 72.5 Q 65.3 74.8 67.5 74 L 70 75 L 69.5 77 L 66.5 75 L 66 76.5 L 66.5 78 Q 65.3 75.8 64 78.5 L 66 79.5 L 63 80 L 64 77.5 L 62 77 L 62 79 Q 59.3 77.9 60 80.5 Q 62.2 78.7 64.5 83 L 67 82.5 Q 66.3 80.3 68.5 81 L 70.5 80 L 69.5 82 Q 66.9 81.3 68 84 L 71.5 86 L 73.5 83 L 76 83.5 L 73 84.5 L 76 86.5 L 75 91.5 L 77 91.5 L 74 93.5 Q 76.2 92.3 73.5 91 L 73 94.5 L 73 96.5 L 72 99.5 L 73 103.5 L 72 103.5 L 70.5 99 L 68.5 100 L 68.5 99 L 70 98.5 L 70 96.5 L 69 92 Q 72.8 92.8 74 89.5 L 75 86.5 L 73.5 86 L 71 87 L 71 91 L 69.5 91 L 69 86.5 L 67.5 84 Q 64.5 83.1 66 87.5 L 67 87.5 L 67.5 86 L 68 88.5 L 67 90.5 L 68 92.5 L 67.5 95 L 65.5 94 L 66 95.5 L 65.5 97 L 63.5 94 L 63 97.5 Q 64.3 100.3 65.5 98 Q 67.8 97.3 67 99.5 L 65 99.5 L 66 102.5 L 61 105.5 L 62 107.5 L 60.5 107 L 58 105.5 Q 56.8 101.8 60.5 103 L 60.5 102 Q 58.3 102.8 59 100.5 Q 57.8 97.8 56.5 100 L 55 99.5 L 57 98.5 L 53.5 96 L 52 96.5 L 52.5 94 L 56.5 96 L 57 94 L 63 92.5 L 60.5 91 L 57.5 93 L 55 92.5 L 58 89.5 L 56.5 88 L 56 90 L 51.5 92 L 48.5 90 L 46 91.5 L 47.5 89 Q 43.1 87.5 44 90.5 L 43 90.5 L 42.5 89 L 40.5 90 L 38 89 L 41.5 84 L 44.5 85 L 46 84.5 L 45 86.5 L 49 85.5 L 48.5 83 L 46.5 83 L 42 80.5 L 43.5 81 L 46.5 82 L 45.5 80 L 43 78.5 L 47 76 L 47.5 73 L 48.5 75 L 49 72.5 Q 47 68 45 71.5 L 46 73.5 L 44 74.5 L 43.5 72 L 42.5 77 L 39 76 L 40 70.5 L 39.5 69 L 42.5 68 L 42 69.5 L 42.5 72 L 45 70.5 L 44.5 69 Q 48.9 67.5 48 70.5 Q 49.5 73.5 51 70.5 L 49 69.5 L 49.5 68 L 46.5 67 L 45 67.5 Q 48.8 65.8 45.5 64 L 43.5 65 L 44.5 63 L 47.5 65 L 49.5 61 L 52 62.5 L 50.5 58 L 49.5 60 L 47.5 60 L 45.5 61 L 44 56.5 L 45 56.5 L 46.5 59 Q 49.3 57.8 47 56.5 L 46 54.5 L 48 54.5 L 47.5 52 Z M 83 61 Q 80 63 81 68 L 84 69 Q 86 70 85 67 L 87 67 L 87 66 L 88 64 L 86 65 L 84 65 L 86 64 L 83 63 L 83 61 Z M 56 62 L 54 64 L 56 65 L 56 62 Z M 75 63 L 74 64 Q 71 63 72 67 L 75 65 L 75 68 L 75 69 L 77 69 L 75 63 Z M 58 64 L 53 67 L 53 69 L 52 71 L 51 74 L 54 75 L 54 74 L 53 71 L 55 71 L 58 66 L 58 64 Z M 80 64 L 78 67 L 80 66 L 80 64 Z M 68 65 L 67 67 L 70 67 L 68 65 Z M 80 67 L 78 69 L 80 69 L 81 70 L 80 67 Z M 87 67 L 87 69 L 89 68 L 87 67 Z M 65 70 Q 65 74 67 71 L 65 70 Z M 82 70 L 82 74 L 85 74 L 86 73 Q 87 69 85 70 L 85 72 L 82 70 Z M 88 70 L 88 73 L 90 72 L 88 70 Z M 60 71 L 59 73 L 55 75 L 57 75 L 59 75 Q 63 73 60 71 Z M 83 75 L 81 77 L 84 77 L 84 79 L 86 78 L 83 75 Z M 48 76 L 50 80 L 49 81 Q 51 84 52 81 L 50 78 Q 51 75 48 76 Z M 57 76 Q 55 79 58 78 L 57 76 Z M 81 78 L 80 81 L 82 81 L 81 78 Z M 56 79 L 55 80 Q 52 79 53 83 Q 56 84 55 82 L 57 82 Q 58 78 56 79 Z M 64 83 Q 62 86 61 84 L 58 85 L 59 87 L 65 85 L 64 83 Z M 42 86 L 41 88 L 44 89 L 44 87 L 42 86 Z M 64 86 L 61 88 L 65 88 L 64 86 Z M 49 87 Q 48 89 51 88 L 52 89 Q 53 86 49 87 Z M 54 87 L 52 90 L 54 90 Q 57 89 54 87 Z M 62 89 L 64 92 Q 65 88 62 89 Z M 61 97 L 62 101 L 64 101 L 63 99 L 61 97 Z " /><path fill="rgb(146,140,76)" stroke="rgb(146,140,76)" stroke-width="0" opacity="0.996078431372549" d="M 89.5 52 L 91 52.5 L 88 54.5 L 90 55.5 L 88.5 56 L 86 55.5 L 89.5 52 Z " /><path fill="rgb(146,140,76)" stroke="rgb(146,140,76)" stroke-width="0" opacity="0.996078431372549" d="M 73.5 53 L 76 53.5 L 73 55 L 73.5 53 Z " /><path fill="rgb(146,140,76)" stroke="rgb(146,140,76)" stroke-width="0" opacity="0.996078431372549" d="M 77.5 53 L 79 55.5 L 77 54.5 L 77.5 53 Z " /><path fill="rgb(146,140,76)" stroke="rgb(146,140,76)" stroke-width="0" opacity="0.996078431372549" d="M 70.5 55 L 71.5 57 L 70.5 55 Z " /><path fill="rgb(146,140,76)" stroke="rgb(146,140,76)" stroke-width="0" opacity="0.996078431372549" d="M 76.5 56 L 77.5 58 L 79 57.5 Q 77.5 60.5 76 57.5 L 76.5 56 Z " /><path fill="rgb(146,140,76)" stroke="rgb(146,140,76)" stroke-width="0" opacity="0.996078431372549" d="M 89.5 57 L 89.5 59 L 93 60 Q 94.1 62.7 91.5 62 L 88 59.5 L 89.5 57 Z " /><path fill="rgb(146,140,76)" stroke="rgb(146,140,76)" stroke-width="0" opacity="0.996078431372549" d="M 91.5 57 Q 93.8 56.3 93 58.5 L 91.5 57 Z " /><path fill="rgb(146,140,76)" stroke="rgb(146,140,76)" stroke-width="0" opacity="0.996078431372549" d="M 41.5 58 Q 44.1 57.3 43 60 L 40 59.5 L 41.5 58 Z " /><path fill="rgb(146,140,76)" stroke="rgb(146,140,76)" stroke-width="0" opacity="0.996078431372549" d="M 61.5 60 L 64 60.5 Q 61.9 63.8 61.5 60 Z " /><path fill="rgb(146,140,76)" stroke="rgb(146,140,76)" stroke-width="0" opacity="0.996078431372549" d="M 37.5 77 Q 40.5 76.2 39 80 L 37 79.5 L 37.5 77 Z " /><path fill="rgb(146,140,76)" stroke="rgb(146,140,76)" stroke-width="0" opacity="0.996078431372549" d="M 82.5 87 L 81.5 89 L 82.5 87 Z " /><path fill="rgb(146,140,76)" stroke="rgb(146,140,76)" stroke-width="0" opacity="0.996078431372549" d="M 49.5 93 L 48.5 95 L 49.5 93 Z " /><path fill="rgb(146,140,76)" stroke="rgb(146,140,76)" stroke-width="0" opacity="0.996078431372549" d="M 55.5 101 L 54.5 103 L 55.5 101 Z " /><path fill="rgb(146,140,76)" stroke="rgb(146,140,76)" stroke-width="0" opacity="0.996078431372549" d="M 69.5 102 L 70 104.5 L 69 104.5 L 69.5 102 Z " /><path fill="rgb(146,140,76)" stroke="rgb(146,140,76)" stroke-width="0" opacity="0.996078431372549" d="M 67.5 104 L 68 105.5 L 67.5 107 L 69 107.5 L 63.5 108 L 63.5 107 L 67 105.5 L 67.5 104 Z " /><path fill="rgb(146,140,76)" stroke="rgb(146,140,76)" stroke-width="0" opacity="0.996078431372549" d="M 64.5 112 L 65 114 Q 68 113 67 116 L 64 115.5 L 64 113.5 L 64.5 112 Z " /><path fill="rgb(137,130,72)" stroke="rgb(137,130,72)" stroke-width="0" opacity="0.9921568627450981" d="M 56.5 23 Q 59.1 22.2 58 25.5 L 57 29 Q 54.3 30.1 55 27.5 L 57 24.5 L 56.5 23 Z " /><path fill="rgb(137,130,72)" stroke="rgb(137,130,72)" stroke-width="0" opacity="0.9921568627450981" d="M 58.5 27 L 59 30.5 L 58 30.5 L 58.5 27 Z " /><path fill="rgb(137,130,72)" stroke="rgb(137,130,72)" stroke-width="0" opacity="0.9921568627450981" d="M 41.5 38 L 42 39.5 L 39 41.5 L 39.5 39 L 41 39.5 L 41.5 38 Z " /><path fill="rgb(137,130,72)" stroke="rgb(137,130,72)" stroke-width="0" opacity="0.9921568627450981" d="M 49.5 38 L 47.5 41 L 49.5 38 Z " /><path fill="rgb(137,130,72)" stroke="rgb(137,130,72)" stroke-width="0" opacity="0.9921568627450981" d="M 43 40 Q 46.8 38.5 46 41.5 Q 48.3 42.8 45.5 44 L 42.5 43 L 41 42.5 L 43 42 L 43 40 Z " /><path fill="rgb(137,130,72)" stroke="rgb(137,130,72)" stroke-width="0" opacity="0.9921568627450981" d="M 69.5 41 L 71 44 L 66 43.5 L 69.5 41 Z " /><path fill="rgb(137,130,72)" stroke="rgb(137,130,72)" stroke-width="0" opacity="0.9921568627450981" d="M 61.5 50 L 64 50.5 Q 61.9 53.8 61.5 50 Z " /><path fill="rgb(137,130,72)" stroke="rgb(137,130,72)" stroke-width="0" opacity="0.9921568627450981" d="M 74.5 108 L 75 110.5 L 74 110.5 L 74.5 108 Z " /><path fill="rgb(137,130,72)" stroke="rgb(137,130,72)" stroke-width="0" opacity="0.9921568627450981" d="M 56.5 112 L 57.5 114 L 56.5 112 Z " /><path fill="rgb(137,130,72)" stroke="rgb(137,130,72)" stroke-width="0" opacity="0.9921568627450981" d="M 75.5 112 L 78 117.5 L 76 116.5 L 75.5 112 Z " /><path fill="rgb(137,130,72)" stroke="rgb(137,130,72)" stroke-width="0" opacity="0.9921568627450981" d="M 83.5 115 L 84.5 117 L 83.5 115 Z " /><path fill="rgb(137,130,72)" stroke="rgb(137,130,72)" stroke-width="0" opacity="0.9921568627450981" d="M 73 116 Q 76.3 114.9 75 119 L 77.5 119 L 77.5 120 L 71.5 121 L 71.5 120 L 74 119.5 L 66 117.5 L 67.5 117 L 70.5 118 L 73 117.5 L 73 116 Z " /><path fill="rgb(137,130,72)" stroke="rgb(137,130,72)" stroke-width="0" opacity="0.9921568627450981" d="M 80.5 119 L 83 120.5 L 81 121.5 L 80.5 119 Z " /><path fill="rgb(137,130,72)" stroke="rgb(137,130,72)" stroke-width="0" opacity="0.9921568627450981" d="M 83.5 122 L 82.5 124 L 83.5 122 Z " /><path fill="rgb(96,82,48)" stroke="rgb(96,82,48)" stroke-width="0" opacity="0" d="M 0 0 L 46.5 0 L 47 3 L 39.5 7 L 37.5 7 L 35.5 8 L 34 7.5 L 32.5 10 L 30.5 9 L 27 10 L 24.5 14 L 23 13.5 L 22 15.5 L 22.5 17 L 15.5 22 L 14.5 21 L 11 24.5 Q 11.8 26.8 9.5 26 L 8 25.5 L 8 27.5 L 1.5 34 L 0 33.5 L 0 0 Z " /><path fill="rgb(96,82,48)" stroke="rgb(96,82,48)" stroke-width="0" opacity="0" d="M 20.5 19 L 19.5 21 L 20.5 19 Z " /><path fill="rgb(143,135,72)" stroke="rgb(143,135,72)" stroke-width="0" opacity="0.9921568627450981" d="M 90.5 17 L 93 17.5 L 91 18.5 L 93 19 L 92.5 22 L 91 21.5 L 92 23.5 Q 88.9 25.3 90.5 27 L 87 24.5 L 91 23.5 L 89 22.5 L 91 19 L 86 20.5 L 88 21.5 L 82.5 25 L 80 24 L 80.5 20 L 81.5 23 L 83.5 19 L 86.5 18 L 88.5 18 L 90.5 17 Z " /><path fill="rgb(143,135,72)" stroke="rgb(143,135,72)" stroke-width="0" opacity="0.9921568627450981" d="M 74.5 23 L 78 25.5 L 75 24.5 L 74.5 26 L 72.5 26 L 71 25.5 L 74.5 23 Z " /><path fill="rgb(143,135,72)" stroke="rgb(143,135,72)" stroke-width="0" opacity="0.9921568627450981" d="M 79.5 26 L 81.5 27 Q 83.2 24.3 85 28.5 L 83.5 29 L 79.5 27 L 79.5 26 Z " /><path fill="rgb(143,135,72)" stroke="rgb(143,135,72)" stroke-width="0" opacity="0.9921568627450981" d="M 86.5 26 L 89 27.5 L 86.5 29 L 86.5 26 Z " /><path fill="rgb(143,135,72)" stroke="rgb(143,135,72)" stroke-width="0" opacity="0.9921568627450981" d="M 68.5 27 L 68.5 30 L 66.5 29 L 64 30.5 L 68.5 27 Z " /><path fill="rgb(143,135,72)" stroke="rgb(143,135,72)" stroke-width="0" opacity="0.9921568627450981" d="M 57.5 28 L 55.5 31 L 55 29 L 57.5 28 Z " /><path fill="rgb(143,135,72)" stroke="rgb(143,135,72)" stroke-width="0" opacity="0.9921568627450981" d="M 84.5 30 L 85.5 32 L 84.5 30 Z " /><path fill="rgb(143,135,72)" stroke="rgb(143,135,72)" stroke-width="0" opacity="0.9921568627450981" d="M 42.5 38 L 45 39.5 L 42 40 L 42.5 38 Z " /><path fill="rgb(143,135,72)" stroke="rgb(143,135,72)" stroke-width="0" opacity="0.9921568627450981" d="M 52.5 38 L 52 41.5 L 51.5 44 L 49 43.5 L 49 41.5 L 52.5 38 Z " /><path fill="rgb(143,135,72)" stroke="rgb(143,135,72)" stroke-width="0" opacity="0.9921568627450981" d="M 46.5 39 L 47 41.5 L 46 41.5 L 46.5 39 Z " /><path fill="rgb(143,135,72)" stroke="rgb(143,135,72)" stroke-width="0" opacity="0.9921568627450981" d="M 57.5 110 L 58.5 112 L 57.5 110 Z " /><path fill="rgb(143,135,72)" stroke="rgb(143,135,72)" stroke-width="0" opacity="0.9921568627450981" d="M 61.5 114 L 62.5 116 L 61.5 114 Z " /><path fill="rgb(143,135,72)" stroke="rgb(143,135,72)" stroke-width="0" opacity="0.9921568627450981" d="M 66.5 116 L 68 116.5 L 65.5 118 L 66.5 116 Z " /><path fill="rgb(143,136,74)" stroke="rgb(143,136,74)" stroke-width="0" opacity="0.996078431372549" d="M 90.5 20 L 91.5 22 L 90.5 20 Z " /><path fill="rgb(143,136,74)" stroke="rgb(143,136,74)" stroke-width="0" opacity="0.996078431372549" d="M 77.5 22 L 80 23 Q 81.5 26.8 78.5 26 L 77.5 22 Z " /><path fill="rgb(143,136,74)" stroke="rgb(143,136,74)" stroke-width="0" opacity="0.996078431372549" d="M 86.5 22 L 89 22.5 L 85.5 24 L 86.5 22 Z " /><path fill="rgb(143,136,74)" stroke="rgb(143,136,74)" stroke-width="0" opacity="0.996078431372549" d="M 83.5 24 L 85 27.5 L 83 26.5 L 83.5 24 Z " /><path fill="rgb(143,136,74)" stroke="rgb(143,136,74)" stroke-width="0" opacity="0.996078431372549" d="M 87 25 Q 90 24 89 27 Q 86 28 87 25 Z " /><path fill="rgb(143,136,74)" stroke="rgb(143,136,74)" stroke-width="0" opacity="0.996078431372549" d="M 73.5 26 L 77 30.5 L 75 29.5 L 73.5 27 L 72 27.5 L 73.5 26 Z " /><path fill="rgb(143,136,74)" stroke="rgb(143,136,74)" stroke-width="0" opacity="0.996078431372549" d="M 80.5 27 L 84 29.5 L 82 30.5 L 82.5 29 Q 78.5 30 80.5 27 Z " /><path fill="rgb(143,136,74)" stroke="rgb(143,136,74)" stroke-width="0" opacity="0.996078431372549" d="M 65.5 30 L 66.5 32 L 65.5 30 Z " /><path fill="rgb(143,136,74)" stroke="rgb(143,136,74)" stroke-width="0" opacity="0.996078431372549" d="M 56.5 33 Q 59.3 34.3 57 35.5 L 56.5 37 L 55.5 36 L 53 37.5 L 57 34.5 L 56.5 33 Z " /><path fill="rgb(143,136,74)" stroke="rgb(143,136,74)" stroke-width="0" opacity="0.996078431372549" d="M 86.5 34 L 87 35.5 L 85 36.5 L 86.5 34 Z " /><path fill="rgb(143,136,74)" stroke="rgb(143,136,74)" stroke-width="0" opacity="0.996078431372549" d="M 80.5 35 L 83 35.5 L 81.5 39 L 79 38.5 L 82 37.5 L 80.5 35 Z " /><path fill="rgb(143,136,74)" stroke="rgb(143,136,74)" stroke-width="0" opacity="0.996078431372549" d="M 59.5 37 L 60.5 39 L 59.5 37 Z " /><path fill="rgb(143,136,74)" stroke="rgb(143,136,74)" stroke-width="0" opacity="0.996078431372549" d="M 87.5 37 L 88.5 39 L 86.5 39 L 85 38.5 L 87.5 37 Z " /><path fill="rgb(143,136,74)" stroke="rgb(143,136,74)" stroke-width="0" opacity="0.996078431372549" d="M 70.5 38 L 69.5 40 L 70.5 38 Z " /><path fill="rgb(143,136,74)" stroke="rgb(143,136,74)" stroke-width="0" opacity="0.996078431372549" d="M 49.5 40 L 50.5 42 L 49.5 40 Z " /><path fill="rgb(143,136,74)" stroke="rgb(143,136,74)" stroke-width="0" opacity="0.996078431372549" d="M 56.5 40 L 55.5 42 L 56.5 40 Z " /><path fill="rgb(143,136,74)" stroke="rgb(143,136,74)" stroke-width="0" opacity="0.996078431372549" d="M 53.5 41 L 53 42.5 L 52.5 44 L 52 42.5 L 53.5 41 Z " /><path fill="rgb(143,136,74)" stroke="rgb(143,136,74)" stroke-width="0" opacity="0.996078431372549" d="M 92.5 51 L 91.5 53 L 92.5 51 Z " /><path fill="rgb(143,136,74)" stroke="rgb(143,136,74)" stroke-width="0" opacity="0.996078431372549" d="M 67.5 54 L 66.5 56 L 67.5 54 Z " /><path fill="rgb(143,136,74)" stroke="rgb(143,136,74)" stroke-width="0" opacity="0.996078431372549" d="M 41.5 60 L 42 61.5 L 39 63.5 L 41.5 60 Z " /><path fill="rgb(143,136,74)" stroke="rgb(143,136,74)" stroke-width="0" opacity="0.996078431372549" d="M 40.5 65 L 39.5 67 L 40.5 65 Z " /><path fill="rgb(143,136,74)" stroke="rgb(143,136,74)" stroke-width="0" opacity="0.996078431372549" d="M 45.5 90 L 48 91.5 L 46.5 91 L 45.5 90 Z " /><path fill="rgb(143,136,74)" stroke="rgb(143,136,74)" stroke-width="0" opacity="0.996078431372549" d="M 71.5 109 Q 73.8 108.3 73 110.5 L 71.5 109 Z " /><path fill="rgb(143,136,74)" stroke="rgb(143,136,74)" stroke-width="0" opacity="0.996078431372549" d="M 59.5 111 L 60.5 113 Q 57.7 113.7 59.5 111 Z " /><path fill="rgb(143,136,74)" stroke="rgb(143,136,74)" stroke-width="0" opacity="0.996078431372549" d="M 72.5 112 L 73 115 L 76 115.5 L 72 116.5 L 72.5 118 L 70.5 118 L 68 116.5 L 69.5 116 L 71 116.5 L 72 114.5 L 70 113.5 L 72.5 112 Z " /><path fill="rgb(143,136,74)" stroke="rgb(143,136,74)" stroke-width="0" opacity="0.996078431372549" d="M 70.5 119 L 69.5 121 L 70.5 119 Z " /><path fill="rgb(144,137,73)" stroke="rgb(144,137,73)" stroke-width="0" opacity="0.996078431372549" d="M 87.5 20 L 90 21.5 L 88 22.5 L 88.5 24 L 87 22.5 L 87.5 20 Z " /><path fill="rgb(144,137,73)" stroke="rgb(144,137,73)" stroke-width="0" opacity="0.996078431372549" d="M 91.5 22 Q 93.8 21.3 93 23.5 L 92 26.5 L 93 28.5 L 92.5 31 L 91 30.5 L 91.5 33 L 93 32.5 L 91 36 Q 94 34.8 93 38.5 L 92 38.5 L 90.5 36 L 88.5 37 L 87 36.5 Q 87.8 38.8 85.5 38 L 85.5 39 L 87 39 L 87 43 Q 89.7 41.9 89 44.5 Q 92.8 46.3 89.5 48 Q 91.3 45.5 86.5 43 L 82 44 L 83.5 41 L 85 41.5 L 84.5 39 L 82 39.5 L 80.5 44 L 79 42.5 L 80.5 39 L 85 37.5 L 82 36.5 L 82.5 33 L 79.5 35 L 76 32.5 L 78 35.5 L 76 36.5 L 78.5 38 L 79 36 Q 82 35 81 38 L 74.5 41 L 75 39.5 L 74.5 38 L 73 38.5 L 72.5 37 L 71.5 39 L 67 37.5 L 68 39.5 L 65.5 41 L 64 39.5 Q 67.8 37.8 64.5 36 Q 59.7 38.5 61.5 41 L 58 40 Q 59 37 56 38 Q 54.3 42.1 58.5 41 L 58 42.5 L 59 44.5 L 56.5 45 L 56 42.5 L 55.5 41 L 53.5 44 L 50 39.5 L 54 39.5 L 55.5 36 L 57 36.5 L 59.5 32 L 59 33.5 Q 58.3 35.8 60.5 35 L 62.5 34 L 66.5 37 L 67 35 L 72 33.5 L 69 32.5 L 70 30.5 L 69.5 29 Q 71.8 29.8 71 27.5 Q 73 23.8 75 25.5 L 76.5 23 L 79 24.5 L 77 25.5 L 80 27.5 L 81 31 L 83 30.5 L 82.5 29 L 83.5 30 L 87.5 28 Q 89.8 28.8 89 26.5 L 91.5 22 Z M 74 26 L 72 28 L 76 30 L 76 27 L 74 26 Z M 91 28 L 89 29 L 87 32 L 91 30 L 91 28 Z M 72 29 L 73 30 L 74 31 Q 75 28 72 29 Z M 84 30 Q 83 33 86 32 Q 87 29 84 30 Z M 75 34 L 73 36 Q 75 39 76 36 Q 77 33 75 34 Z M 87 34 L 85 37 L 89 36 Q 90 33 87 34 Z M 61 35 L 61 37 L 63 36 L 61 35 Z M 69 35 L 69 37 L 72 36 L 69 35 Z M 60 37 Q 58 40 61 39 L 60 37 Z " /><path fill="rgb(144,137,73)" stroke="rgb(144,137,73)" stroke-width="0" opacity="0.996078431372549" d="M 80.5 24 L 81.5 26 Q 78.7 26.7 80.5 24 Z " /><path fill="rgb(144,137,73)" stroke="rgb(144,137,73)" stroke-width="0" opacity="0.996078431372549" d="M 85.5 24 Q 87.8 23.3 87 25.5 L 84.5 27 L 84.5 26 L 86 25.5 L 85.5 24 Z " /><path fill="rgb(144,137,73)" stroke="rgb(144,137,73)" stroke-width="0" opacity="0.996078431372549" d="M 56.5 25 L 57.5 27 L 56.5 25 Z " /><path fill="rgb(144,137,73)" stroke="rgb(144,137,73)" stroke-width="0" opacity="0.996078431372549" d="M 55.5 31 L 56.5 33 L 55.5 31 Z " /><path fill="rgb(144,137,73)" stroke="rgb(144,137,73)" stroke-width="0" opacity="0.996078431372549" d="M 63.5 31 L 67 33.5 L 64 34 L 63.5 32 L 61.5 33 L 61.5 32 L 63.5 31 Z " /><path fill="rgb(144,137,73)" stroke="rgb(144,137,73)" stroke-width="0" opacity="0.996078431372549" d="M 40.5 39 L 39.5 41 L 40.5 39 Z " /><path fill="rgb(144,137,73)" stroke="rgb(144,137,73)" stroke-width="0" opacity="0.996078431372549" d="M 90.5 41 L 91 43.5 L 90 43.5 L 90.5 41 Z " /><path fill="rgb(144,137,73)" stroke="rgb(144,137,73)" stroke-width="0" opacity="0.996078431372549" d="M 65.5 44 L 64.5 46 L 61.5 47 L 62.5 45 L 65.5 44 Z " /><path fill="rgb(144,137,73)" stroke="rgb(144,137,73)" stroke-width="0" opacity="0.996078431372549" d="M 82.5 45 L 81.5 47 L 82.5 45 Z " /><path fill="rgb(144,137,73)" stroke="rgb(144,137,73)" stroke-width="0" opacity="0.996078431372549" d="M 86.5 45 L 87 46.5 L 83.5 48 L 83.5 47 Q 87 48 86.5 45 Z " /><path fill="rgb(144,137,73)" stroke="rgb(144,137,73)" stroke-width="0" opacity="0.996078431372549" d="M 56.5 46 L 60 47.5 L 55.5 49 L 55.5 48 L 57 47.5 L 56.5 46 Z " /><path fill="rgb(144,137,73)" stroke="rgb(144,137,73)" stroke-width="0" opacity="0.996078431372549" d="M 64.5 47 L 68 49.5 L 66.5 49 Q 62.5 50 64.5 47 Z " /><path fill="rgb(144,137,73)" stroke="rgb(144,137,73)" stroke-width="0" opacity="0.996078431372549" d="M 92.5 47 L 91.5 49 L 92.5 47 Z " /><path fill="rgb(144,137,73)" stroke="rgb(144,137,73)" stroke-width="0" opacity="0.996078431372549" d="M 87.5 53 L 88.5 55 L 87.5 53 Z " /><path fill="rgb(144,137,73)" stroke="rgb(144,137,73)" stroke-width="0" opacity="0.996078431372549" d="M 82.5 54 L 84.5 57 L 82.5 54 Z " /><path fill="rgb(144,137,73)" stroke="rgb(144,137,73)" stroke-width="0" opacity="0.996078431372549" d="M 79.5 55 L 80.5 57 L 79.5 55 Z " /><path fill="rgb(144,137,73)" stroke="rgb(144,137,73)" stroke-width="0" opacity="0.996078431372549" d="M 90.5 57 L 89.5 59 L 90.5 57 Z " /><path fill="rgb(144,137,73)" stroke="rgb(144,137,73)" stroke-width="0" opacity="0.996078431372549" d="M 70.5 58 L 71.5 60 L 70.5 58 Z " /><path fill="rgb(144,137,73)" stroke="rgb(144,137,73)" stroke-width="0" opacity="0.996078431372549" d="M 58.5 62 L 59.5 64 L 58.5 62 Z " /><path fill="rgb(144,137,73)" stroke="rgb(144,137,73)" stroke-width="0" opacity="0.996078431372549" d="M 40.5 76 L 40.5 79 Q 37.5 77.5 40.5 76 Z " /><path fill="rgb(144,137,73)" stroke="rgb(144,137,73)" stroke-width="0" opacity="0.996078431372549" d="M 42.5 83 Q 44.8 82.3 44 84.5 L 42.5 83 Z " /><path fill="rgb(144,137,73)" stroke="rgb(144,137,73)" stroke-width="0" opacity="0.996078431372549" d="M 52.5 95 L 51.5 97 L 52.5 95 Z " /><path fill="rgb(111,96,57)" stroke="rgb(111,96,57)" stroke-width="0" opacity="0" d="M 47 0 L 72.5 0 L 73 1.5 L 71 1.5 Q 71.8 3.8 69.5 3 L 67.5 3 L 66 3.5 Q 68.3 4.8 65.5 6 L 62.5 5 Q 58 4.5 57.5 8 L 53 6.5 L 51.5 9 Q 50.3 6.8 49 9.5 L 48.5 11 L 47 10.5 Q 47.9 13.5 43.5 12 L 36 16 L 34 20 L 29 20 L 29 21.5 L 28 24 L 24 26.5 L 24.5 28 L 23 27.5 L 21.5 30 L 18.5 32 Q 14.8 34 16.5 36 Q 15.4 33.3 12 34 L 12 39 L 10.5 39 L 7.5 43 L 6 43 L 6 47 L 4.5 47 Q 0.8 49 2.5 51 L 0.5 52 L 0 49.5 L 0 36.5 L 1 35.5 L 0.5 34 L 3 32.5 L 2.5 31 L 3.5 32 L 8 27.5 L 8.5 25 L 11 26 L 10 23.5 Q 12.2 25.2 14.5 21 L 15.5 22 L 19.5 18 L 21 17.5 L 20.5 16 L 22.5 17 L 23 14.5 L 24.5 12 Q 25.8 14.3 27 11.5 Q 26.2 8.9 29.5 10 L 31.5 10 L 33 9.5 L 32.5 8 L 34 8.5 L 34.5 7 L 36.5 7 L 39.5 5 L 41.5 5 L 47 3 L 47 0 Z " /><path fill="rgb(125,109,64)" stroke="rgb(125,109,64)" stroke-width="0" opacity="0.00784313725490196" d="M 83.5 2 L 87 2 Q 85.9 4.7 88.5 4 L 90.5 4 Q 94.3 3 93 6 L 88 6 L 88 7.5 L 87.5 9 L 89 9.5 L 87.5 10 L 84.5 8 L 84.5 10 L 83 9.5 L 82.5 11 L 81.5 9 L 79 10.5 L 78.5 9 L 75.5 12 L 73.5 12 Q 70.2 10.9 71 13.5 L 65.5 15 L 60.5 16 L 57.5 15 L 53 17.5 L 53.5 19 L 50.5 17 L 48.5 20 Q 45.5 19.2 47 23 L 45 23 L 45 25.5 L 43 25.5 Q 44.1 28.8 41.5 28 L 39.5 29 L 36.5 28 L 34 29.5 Q 36.3 30.8 33.5 32 Q 31.3 31.3 32 33.5 L 30 33.5 L 29 35.5 L 29.5 37 L 28 37 L 28 40 Q 25.3 38.9 26 41.5 L 26.5 43 L 23 44 L 20.5 48 L 19 48.5 L 19.5 50 L 17 51.5 L 15.5 54 L 14 53.5 Q 14.7 56.1 12 55 L 12 57 L 10.5 57 L 10.5 59 L 8 60.5 Q 9.3 64.3 5.5 63 L 3 68 L 1 68.5 L 1.5 70 Q -1.5 70.5 0 63.5 L 3 62 L 2 59.5 L 7 57 Q 5.9 54.3 8.5 55 L 9 52.5 Q 8.3 50.3 10.5 51 L 10.5 49 L 12 49 L 12 47 Q 14.7 48.1 14 45.5 Q 11.8 44.3 14.5 43 L 15.5 46 L 20.5 39 L 23 37.5 L 25 32 Q 29.1 33.7 28 29.5 L 35 27 L 36.5 23 L 39.5 24 L 44 20.5 L 44.5 19 L 46 19.5 L 47 15 Q 50.8 16.5 50 13.5 L 51.5 12 L 64.5 12 L 69.5 9 L 71 9.5 L 71.5 7 L 73.5 7 L 78 6 L 78.5 4 L 79.5 6 L 82 5 L 83.5 2 Z M 84 4 L 84 5 L 86 5 L 84 4 Z " /><path fill="rgb(121,111,64)" stroke="rgb(121,111,64)" stroke-width="0" opacity="0.9803921568627451" d="M 56.5 22 Q 59.8 20.9 59 23.5 L 57.5 23 L 56.5 22 Z " /><path fill="rgb(121,111,64)" stroke="rgb(121,111,64)" stroke-width="0" opacity="0.9803921568627451" d="M 55.5 26 L 55 27.5 Q 56 31.3 53 30 L 55.5 26 Z " /><path fill="rgb(121,111,64)" stroke="rgb(121,111,64)" stroke-width="0" opacity="0.9803921568627451" d="M 61.5 26 L 63 26.5 L 60.5 28 L 61.5 26 Z " /><path fill="rgb(121,111,64)" stroke="rgb(121,111,64)" stroke-width="0" opacity="0.9803921568627451" d="M 45.5 36 L 49 36.5 L 47.5 40 L 46.5 37 L 42.5 38 L 42.5 37 L 45.5 36 Z " /><path fill="rgb(121,111,64)" stroke="rgb(121,111,64)" stroke-width="0" opacity="0.9803921568627451" d="M 38.5 39 L 39 41.5 L 37 40.5 L 38.5 39 Z " /><path fill="rgb(121,111,64)" stroke="rgb(121,111,64)" stroke-width="0" opacity="0.9803921568627451" d="M 41.5 40 Q 44.1 39.3 43 42 L 41 42.5 L 43.5 44 L 45.5 44 L 48 45.5 L 46 49.5 L 47 50.5 L 41.5 56 L 43.5 52 L 42 51.5 L 44 48 L 46 47.5 L 44.5 46 L 42 47.5 Q 42.8 44.9 39.5 46 L 39.5 45 L 42 44.5 L 40 41.5 L 41.5 40 Z " /><path fill="rgb(121,111,64)" stroke="rgb(121,111,64)" stroke-width="0" opacity="0.9803921568627451" d="M 70.5 41 L 73 41.5 L 70.5 42 L 70.5 41 Z " /><path fill="rgb(121,111,64)" stroke="rgb(121,111,64)" stroke-width="0" opacity="0.9803921568627451" d="M 74.5 41 L 75 42.5 L 73 43.5 L 74.5 41 Z " /><path fill="rgb(121,111,64)" stroke="rgb(121,111,64)" stroke-width="0" opacity="0.9803921568627451" d="M 35.5 44 Q 38.8 42.9 38 45.5 L 36.5 45 L 35.5 44 Z " /><path fill="rgb(121,111,64)" stroke="rgb(121,111,64)" stroke-width="0" opacity="0.9803921568627451" d="M 68.5 44 L 71 44.5 L 67.5 47 L 67 45.5 L 68.5 44 Z " /><path fill="rgb(121,111,64)" stroke="rgb(121,111,64)" stroke-width="0" opacity="0.9803921568627451" d="M 59.5 52 L 58.5 54 L 59.5 52 Z " /><path fill="rgb(121,111,64)" stroke="rgb(121,111,64)" stroke-width="0" opacity="0.9803921568627451" d="M 62.5 57 L 62 58.5 L 61.5 60 L 61 58.5 L 62.5 57 Z " /><path fill="rgb(121,111,64)" stroke="rgb(121,111,64)" stroke-width="0" opacity="0.9803921568627451" d="M 34.5 73 L 35 82.5 L 34 82.5 L 34.5 73 Z " /><path fill="rgb(121,111,64)" stroke="rgb(121,111,64)" stroke-width="0" opacity="0.9803921568627451" d="M 88.5 88 L 93 88.5 L 88.5 89 L 88.5 88 Z " /><path fill="rgb(121,111,64)" stroke="rgb(121,111,64)" stroke-width="0" opacity="0.9803921568627451" d="M 87.5 90 L 93 90.5 L 87.5 91 L 87.5 90 Z " /><path fill="rgb(121,111,64)" stroke="rgb(121,111,64)" stroke-width="0" opacity="0.9803921568627451" d="M 43.5 92 L 42.5 94 L 43.5 92 Z " /><path fill="rgb(121,111,64)" stroke="rgb(121,111,64)" stroke-width="0" opacity="0.9803921568627451" d="M 42.5 98 L 41.5 100 L 42.5 98 Z " /><path fill="rgb(121,111,64)" stroke="rgb(121,111,64)" stroke-width="0" opacity="0.9803921568627451" d="M 91 104 Q 94 102.8 93 106.5 L 91 105.5 L 91 104 Z " /><path fill="rgb(121,111,64)" stroke="rgb(121,111,64)" stroke-width="0" opacity="0.9803921568627451" d="M 74.5 105 L 75 107.5 L 74 107.5 L 74.5 105 Z " /><path fill="rgb(121,111,64)" stroke="rgb(121,111,64)" stroke-width="0" opacity="0.9803921568627451" d="M 75.5 110 L 78.5 115 L 79 113.5 L 78.5 112 L 80 114.5 L 79 115.5 L 80.5 118 Q 75.2 115.4 75.5 110 Z " /><path fill="rgb(121,111,64)" stroke="rgb(121,111,64)" stroke-width="0" opacity="0.9803921568627451" d="M 52.5 111 L 54.5 114 L 52.5 111 Z " /><path fill="rgb(121,111,64)" stroke="rgb(121,111,64)" stroke-width="0" opacity="0.9803921568627451" d="M 57.5 116 L 59.5 119 L 57.5 116 Z " /><path fill="rgb(121,111,64)" stroke="rgb(121,111,64)" stroke-width="0" opacity="0.9803921568627451" d="M 60.5 116 L 61.5 118 L 60.5 116 Z " /><path fill="rgb(121,111,64)" stroke="rgb(121,111,64)" stroke-width="0" opacity="0.9803921568627451" d="M 78.5 119 L 81 120.5 L 80.5 122 L 82 122.5 L 80.5 123 L 79.5 120 L 78.5 119 Z " /><path fill="rgb(121,111,64)" stroke="rgb(121,111,64)" stroke-width="0" opacity="0.9803921568627451" d="M 83.5 121 L 84.5 123 L 83.5 121 Z " /><path fill="rgb(121,111,64)" stroke="rgb(121,111,64)" stroke-width="0" opacity="0.9803921568627451" d="M 77.5 122 L 78 124 L 76 123.5 L 77.5 122 Z " /><path fill="rgb(121,111,64)" stroke="rgb(121,111,64)" stroke-width="0" opacity="0.9803921568627451" d="M 83.5 126 L 84.5 128 L 83.5 126 Z " /><path fill="rgb(121,105,63)" stroke="rgb(121,105,63)" stroke-width="0" opacity="0.0196078431372549" d="M 74.5 4 L 77 5.5 L 74.5 7 L 74.5 4 Z " /><path fill="rgb(121,105,63)" stroke="rgb(121,105,63)" stroke-width="0" opacity="0.0196078431372549" d="M 50.5 12 L 50 13.5 Q 50.8 15.8 48.5 15 L 50.5 12 Z " /><path fill="rgb(121,105,63)" stroke="rgb(121,105,63)" stroke-width="0" opacity="0.0196078431372549" d="M 42.5 20 L 44 20.5 L 39.5 24 L 39 22 L 42.5 20 Z " /><path fill="rgb(121,105,63)" stroke="rgb(121,105,63)" stroke-width="0" opacity="0.0196078431372549" d="M 33.5 25 L 34.5 27 L 33.5 25 Z " /><path fill="rgb(121,105,63)" stroke="rgb(121,105,63)" stroke-width="0" opacity="0.0196078431372549" d="M 27.5 30 L 28 32 L 24 31.5 L 27.5 30 Z " /><path fill="rgb(121,105,63)" stroke="rgb(121,105,63)" stroke-width="0" opacity="0.0196078431372549" d="M 24.5 33 L 24 34.5 Q 23.3 36.8 25.5 36 L 25.5 37 L 23.5 36 L 23 38 L 19 40.5 L 18 43.5 L 18.5 45 L 17.5 44 L 15 45.5 L 15.5 43 Q 17.8 43.8 17 41.5 L 24.5 33 Z " /><path fill="rgb(121,105,63)" stroke="rgb(121,105,63)" stroke-width="0" opacity="0.0196078431372549" d="M 12.5 45 L 13.5 47 Q 10.7 47.7 12.5 45 Z " /><path fill="rgb(121,105,63)" stroke="rgb(121,105,63)" stroke-width="0" opacity="0.0196078431372549" d="M 10.5 48 L 12 48.5 L 10 49.5 L 10.5 51 Q 6.8 52 8 49 L 10.5 48 Z " /><path fill="rgb(121,105,63)" stroke="rgb(121,105,63)" stroke-width="0" opacity="0.0196078431372549" d="M 7.5 52 L 9 52.5 L 7 53.5 L 9 54.5 L 7 55 Q 8.1 57.7 5.5 57 L 3 58.5 L 3 56 Q 5.7 57.1 5 54.5 L 7.5 52 Z " /><path fill="rgb(121,105,63)" stroke="rgb(121,105,63)" stroke-width="0" opacity="0.0196078431372549" d="M 0.5 58 L 3 61.5 L 1 60.5 L 0.5 58 Z " /><path fill="rgb(131,114,68)" stroke="rgb(131,114,68)" stroke-width="0" opacity="0" d="M 88 6 L 93 6 L 93 9 L 89.5 10 L 87.5 9 Q 85.5 14 76.5 12 L 78.5 9 L 79.5 11 L 82.5 8 L 84.5 8 L 86.5 9 L 88 6 Z " /><path fill="rgb(131,114,68)" stroke="rgb(131,114,68)" stroke-width="0" opacity="0" d="M 74.5 11 L 75 12.5 Q 71.2 19 63 20 L 62.5 17 L 60.5 17 L 58.5 16 L 57 16.5 Q 56.2 13.9 59.5 15 L 61.5 15 L 66.5 14 L 67.5 15 Q 69.3 11.9 71 13.5 Q 70.2 10.9 73.5 12 L 74.5 11 Z " /><path fill="rgb(131,114,68)" stroke="rgb(131,114,68)" stroke-width="0" opacity="0" d="M 53.5 15 L 56 16.5 L 50 21.5 L 47 30 Q 44.3 28.9 45 31.5 L 39.5 35 L 38 34.5 L 37.5 36 L 35.5 35 Q 30.1 38.1 29 45.5 L 30 47.5 L 27 48.5 Q 29.5 50 26 51.5 L 23.5 58 L 21.5 57 L 19.5 63 L 18 62.5 Q 18.5 66.5 15.5 67 L 14.5 62 L 12 66.5 L 12 69 L 10 69 Q 11.1 71.7 8.5 71 L 5 73.5 L 2.5 79 L 0 78.5 L 0 70.5 L 1.5 70 L 1.5 68 Q 3.8 68.8 3 66.5 L 5.5 63 Q 9.3 64.3 8 60.5 L 11 58.5 L 10.5 57 L 12 57 L 12 55 Q 14.7 56.1 14 53.5 L 17 52.5 L 18.5 50 L 20 49.5 L 19.5 48 L 23 45.5 L 22 43.5 L 23.5 44 L 27 42.5 L 26 40 L 28 40 Q 26.5 36.3 29.5 37 L 30 34.5 L 30.5 33 L 32 33.5 Q 31.3 31.3 33.5 32 L 34.5 29 L 38.5 28 L 40.5 29 L 43 28 L 43.5 25 L 45 25.5 L 45 23 L 47 23 Q 45.5 19.2 48.5 20 L 50.5 17 L 52.5 18 L 53.5 15 Z M 24 54 L 22 56 L 24 56 L 24 54 Z " /><path fill="rgb(138,121,74)" stroke="rgb(138,121,74)" stroke-width="0" opacity="0" d="M 90.5 9 L 89.5 11 L 90.5 9 Z " /><path fill="rgb(138,121,74)" stroke="rgb(138,121,74)" stroke-width="0" opacity="0" d="M 75.5 12 L 80 12.5 L 76.5 14 Q 74.3 13.3 75 15.5 L 72 15.5 L 75.5 12 Z " /><path fill="rgb(138,121,74)" stroke="rgb(138,121,74)" stroke-width="0" opacity="0" d="M 68.5 18 L 67.5 20 L 65 19.5 L 68.5 18 Z " /><path fill="rgb(138,121,74)" stroke="rgb(138,121,74)" stroke-width="0" opacity="0" d="M 45 30 Q 48 29 47 32 L 44.5 33 L 45 31.5 L 45 30 Z " /><path fill="rgb(138,121,74)" stroke="rgb(138,121,74)" stroke-width="0" opacity="0" d="M 42.5 33 L 41.5 35 L 39.5 36 L 38.5 34 L 40.5 34 L 42.5 33 Z " /><path fill="rgb(138,121,74)" stroke="rgb(138,121,74)" stroke-width="0" opacity="0" d="M 32.5 38 L 32 39.5 L 31 43.5 L 33.5 47 L 35 46.5 L 34 49.5 L 33 52.5 Q 35.3 53.7 32.5 55 L 31 54.5 L 32 58 Q 28 56.6 30 63.5 L 28.5 67 L 27 66.5 L 28 69.5 L 27 69.5 L 26.5 68 L 23.5 75 L 23 72 L 20 73.5 L 20.5 75 L 18 75.5 L 20 76.5 L 15 79 L 14.5 77 L 12 81 L 8 82 Q 9.3 85.3 4.5 84 Q -0.3 86.5 1.5 89 L 0 88.5 L 0 79.5 L 3 78.5 L 5 73.5 L 4.5 72 L 6.5 72 L 10 71 Q 9 68 12 69 L 12 66.5 L 14.5 62 L 15.5 67 L 18.5 62 Q 19.7 64.3 21 61.5 L 20 60.5 Q 23.1 58.8 21.5 57 L 23.5 58 L 24 56 L 22 55.5 L 24 54.5 L 24.5 56 L 28 49.5 Q 25.8 48.2 28.5 47 L 30 47.5 L 29 45.5 L 32.5 38 Z " /><path fill="rgb(160,158,88)" stroke="rgb(160,158,88)" stroke-width="0" opacity="0.9882352941176471" d="M 89.5 16 L 92 16.5 L 87.5 18 L 87.5 17 L 89.5 16 Z " /><path fill="rgb(160,158,88)" stroke="rgb(160,158,88)" stroke-width="0" opacity="0.9882352941176471" d="M 77.5 20 L 79 20.5 L 63.5 30 L 65.5 27 L 77.5 20 Z " /><path fill="rgb(160,158,88)" stroke="rgb(160,158,88)" stroke-width="0" opacity="0.9882352941176471" d="M 52.5 36 L 51.5 38 L 52.5 36 Z " /><path fill="rgb(160,158,88)" stroke="rgb(160,158,88)" stroke-width="0" opacity="0.9882352941176471" d="M 73.5 45 L 71.5 48 L 73.5 45 Z " /><path fill="rgb(160,158,88)" stroke="rgb(160,158,88)" stroke-width="0" opacity="0.9882352941176471" d="M 47.5 51 L 44.5 55 L 42 56.5 L 39.5 61 L 39 59.5 L 43.5 54 L 47.5 51 Z " /><path fill="rgb(160,158,88)" stroke="rgb(160,158,88)" stroke-width="0" opacity="0.9882352941176471" d="M 58.5 52 L 57.5 54 L 58.5 52 Z " /><path fill="rgb(160,158,88)" stroke="rgb(160,158,88)" stroke-width="0" opacity="0.9882352941176471" d="M 66.5 52 L 67 53.5 L 63.5 58 L 65 55.5 L 66.5 52 Z " /><path fill="rgb(160,158,88)" stroke="rgb(160,158,88)" stroke-width="0" opacity="0.9882352941176471" d="M 56.5 55 L 57 59.5 L 56 59.5 L 56.5 55 Z " /><path fill="rgb(160,158,88)" stroke="rgb(160,158,88)" stroke-width="0" opacity="0.9882352941176471" d="M 35.5 71 L 36 80.5 L 35 80.5 L 35.5 71 Z " /><path fill="rgb(160,158,88)" stroke="rgb(160,158,88)" stroke-width="0" opacity="0.9882352941176471" d="M 36.5 87 L 37 89.5 L 36 89.5 L 36.5 87 Z " /><path fill="rgb(160,158,88)" stroke="rgb(160,158,88)" stroke-width="0" opacity="0.9882352941176471" d="M 86.5 87 L 93 87.5 Q 79.8 88.3 74.5 97 L 75 95.5 L 78.5 91 L 86.5 87 Z " /><path fill="rgb(160,158,88)" stroke="rgb(160,158,88)" stroke-width="0" opacity="0.9882352941176471" d="M 40 92 L 43 92.5 L 39.5 98 Q 36.9 98.8 38 95.5 L 37 93.5 L 38 93.5 L 39.5 96 L 40 92 Z " /><path fill="rgb(160,158,88)" stroke="rgb(160,158,88)" stroke-width="0" opacity="0.9882352941176471" d="M 49.5 96 L 55 107.5 L 53 106.5 L 49.5 96 Z " /><path fill="rgb(160,158,88)" stroke="rgb(160,158,88)" stroke-width="0" opacity="0.9882352941176471" d="M 16.5 102 L 17 104.5 Q 15.5 107.5 14 104.5 L 14.5 103 L 15.5 105 L 16.5 102 Z " /><path fill="rgb(160,158,88)" stroke="rgb(160,158,88)" stroke-width="0" opacity="0.9882352941176471" d="M 56.5 111 L 61.5 117 L 56.5 111 Z " /><path fill="rgb(160,158,88)" stroke="rgb(160,158,88)" stroke-width="0" opacity="0.9882352941176471" d="M 81.5 118 L 86 122.5 L 86 124.5 L 85 124.5 L 85 122.5 L 81.5 118 Z " /><path fill="rgb(160,158,88)" stroke="rgb(160,158,88)" stroke-width="0" opacity="0.9882352941176471" d="M 82.5 122 L 83.5 124 L 82.5 122 Z " /><path fill="rgb(160,158,88)" stroke="rgb(160,158,88)" stroke-width="0" opacity="0.9882352941176471" d="M 89.5 122 L 88.5 126 L 87 123 L 89.5 122 Z " /><path fill="rgb(160,158,88)" stroke="rgb(160,158,88)" stroke-width="0" opacity="0.9882352941176471" d="M 45.5 129 L 47 129.5 L 45 130 Q 46.1 132.7 43.5 132 L 45.5 129 Z " /><path fill="rgb(145,139,74)" stroke="rgb(145,139,74)" stroke-width="0" opacity="0.996078431372549" d="M 87.5 30 L 89.5 33 L 87 32 L 87.5 30 Z " /><path fill="rgb(145,139,74)" stroke="rgb(145,139,74)" stroke-width="0" opacity="0.996078431372549" d="M 91.5 32 Q 94.5 33.5 91.5 35 L 91.5 32 Z " /><path fill="rgb(145,139,74)" stroke="rgb(145,139,74)" stroke-width="0" opacity="0.996078431372549" d="M 60.5 34 L 61.5 36 L 60.5 34 Z " /><path fill="rgb(145,139,74)" stroke="rgb(145,139,74)" stroke-width="0" opacity="0.996078431372549" d="M 87.5 36 L 90 36.5 L 89.5 39 L 87 38.5 L 87.5 36 Z " /><path fill="rgb(145,139,74)" stroke="rgb(145,139,74)" stroke-width="0" opacity="0.996078431372549" d="M 77.5 39 L 79 42 L 77 41.5 L 77.5 39 Z " /><path fill="rgb(145,139,74)" stroke="rgb(145,139,74)" stroke-width="0" opacity="0.996078431372549" d="M 62.5 40 L 64 42.5 L 63.5 45 L 62 44.5 L 61.5 46 L 58 43.5 L 60 43.5 Q 58.9 40.2 61.5 41 L 62.5 40 Z " /><path fill="rgb(145,139,74)" stroke="rgb(145,139,74)" stroke-width="0" opacity="0.996078431372549" d="M 91 40 Q 93.7 38.9 93 41.5 L 91.5 44 L 91 40 Z " /><path fill="rgb(145,139,74)" stroke="rgb(145,139,74)" stroke-width="0" opacity="0.996078431372549" d="M 56.5 43 L 56 44.5 L 55.5 46 Q 54.3 43.8 53 46.5 L 52 50 L 50 49.5 Q 52.8 48.3 52.5 44 L 54.5 44 L 56.5 43 Z " /><path fill="rgb(145,139,74)" stroke="rgb(145,139,74)" stroke-width="0" opacity="0.996078431372549" d="M 81.5 43 L 85 45 L 84.5 47 L 81.5 43 Z " /><path fill="rgb(145,139,74)" stroke="rgb(145,139,74)" stroke-width="0" opacity="0.996078431372549" d="M 76.5 44 Q 78 47.5 79.5 45 L 81 45.5 L 78.5 47 L 76.5 44 Z " /><path fill="rgb(145,139,74)" stroke="rgb(145,139,74)" stroke-width="0" opacity="0.996078431372549" d="M 89.5 44 L 92 45 L 90.5 48 L 89.5 44 Z " /><path fill="rgb(145,139,74)" stroke="rgb(145,139,74)" stroke-width="0" opacity="0.996078431372549" d="M 73.5 46 L 76 47.5 L 73.5 49 Q 70.5 47.5 73.5 46 Z " /><path fill="rgb(145,139,74)" stroke="rgb(145,139,74)" stroke-width="0" opacity="0.996078431372549" d="M 87.5 46 Q 90.1 45.3 89 48 Q 86.3 46.9 87 49.5 L 86 49.5 L 87.5 46 Z " /><path fill="rgb(145,139,74)" stroke="rgb(145,139,74)" stroke-width="0" opacity="0.996078431372549" d="M 60.5 47 L 62.5 50 L 60 49.5 L 60.5 47 Z " /><path fill="rgb(145,139,74)" stroke="rgb(145,139,74)" stroke-width="0" opacity="0.996078431372549" d="M 81.5 47 L 85 48 L 82.5 53 L 78 51.5 Q 78.8 53.8 76.5 53 L 75 52.5 Q 74.3 54.8 76.5 54 L 75.5 56 L 73.5 53 L 70 50.5 L 72.5 52 L 75.5 51 Q 76.8 53.3 78 50.5 Q 75.8 49.3 78.5 48 L 78.5 50 L 81.5 51 L 84 49.5 L 81.5 47 Z " /><path fill="rgb(145,139,74)" stroke="rgb(145,139,74)" stroke-width="0" opacity="0.996078431372549" d="M 90.5 49 L 93 49.5 L 92 52 L 88 50.5 L 90.5 49 Z " /><path fill="rgb(145,139,74)" stroke="rgb(145,139,74)" stroke-width="0" opacity="0.996078431372549" d="M 53.5 50 Q 55.8 49.3 55 51.5 L 53.5 50 Z " /><path fill="rgb(145,139,74)" stroke="rgb(145,139,74)" stroke-width="0" opacity="0.996078431372549" d="M 49.5 51 L 52 51.5 L 49.5 52 L 49.5 51 Z " /><path fill="rgb(145,139,74)" stroke="rgb(145,139,74)" stroke-width="0" opacity="0.996078431372549" d="M 86.5 51 L 91 54.5 L 88.5 53 L 86.5 54 L 86.5 51 Z " /><path fill="rgb(145,139,74)" stroke="rgb(145,139,74)" stroke-width="0" opacity="0.996078431372549" d="M 69.5 54 L 70.5 56 L 71.5 54 L 72.5 56 L 74 55.5 L 71 56.5 L 70.5 58 Q 68 57 69.5 54 Z " /><path fill="rgb(145,139,74)" stroke="rgb(145,139,74)" stroke-width="0" opacity="0.996078431372549" d="M 92.5 55 L 93 57 L 91 56.5 L 92.5 55 Z " /><path fill="rgb(145,139,74)" stroke="rgb(145,139,74)" stroke-width="0" opacity="0.996078431372549" d="M 77 56 L 79 56.5 L 78 57.5 L 80.5 61 L 78 60 L 77.5 58 L 76.5 61 L 75 59.5 L 75.5 57 L 77 57.5 L 77 56 Z " /><path fill="rgb(145,139,74)" stroke="rgb(145,139,74)" stroke-width="0" opacity="0.996078431372549" d="M 87.5 56 L 87 57.5 L 88 59.5 L 85.5 61 L 85 58 L 81.5 59 L 80.5 57 L 82.5 57 L 85.5 58 L 87.5 56 Z " /><path fill="rgb(145,139,74)" stroke="rgb(145,139,74)" stroke-width="0" opacity="0.996078431372549" d="M 90.5 58 L 91.5 60 L 90.5 58 Z " /><path fill="rgb(145,139,74)" stroke="rgb(145,139,74)" stroke-width="0" opacity="0.996078431372549" d="M 44.5 60 L 47 61.5 L 47.5 60 L 49 62.5 L 46.5 63 L 44 61.5 L 44.5 60 Z " /><path fill="rgb(145,139,74)" stroke="rgb(145,139,74)" stroke-width="0" opacity="0.996078431372549" d="M 72.5 60 L 71.5 62 L 72.5 60 Z " /><path fill="rgb(145,139,74)" stroke="rgb(145,139,74)" stroke-width="0" opacity="0.996078431372549" d="M 87.5 61 L 88.5 63 L 87.5 61 Z " /><path fill="rgb(145,139,74)" stroke="rgb(145,139,74)" stroke-width="0" opacity="0.996078431372549" d="M 55.5 62 L 55.5 65 Q 52.5 63.5 55.5 62 Z " /><path fill="rgb(145,139,74)" stroke="rgb(145,139,74)" stroke-width="0" opacity="0.996078431372549" d="M 66.5 62 L 67.5 64 L 66.5 62 Z " /><path fill="rgb(145,139,74)" stroke="rgb(145,139,74)" stroke-width="0" opacity="0.996078431372549" d="M 79.5 62 L 85 63.5 L 83 64 Q 84 67 81 66 Q 82.5 62.2 79.5 63 L 79.5 62 Z " /><path fill="rgb(145,139,74)" stroke="rgb(145,139,74)" stroke-width="0" opacity="0.996078431372549" d="M 40.5 63 L 41.5 65 L 40.5 63 Z " /><path fill="rgb(145,139,74)" stroke="rgb(145,139,74)" stroke-width="0" opacity="0.996078431372549" d="M 43.5 63 L 46 64.5 L 44.5 65 L 43.5 63 Z " /><path fill="rgb(145,139,74)" stroke="rgb(145,139,74)" stroke-width="0" opacity="0.996078431372549" d="M 61.5 64 L 62.5 66 L 61.5 64 Z " /><path fill="rgb(145,139,74)" stroke="rgb(145,139,74)" stroke-width="0" opacity="0.996078431372549" d="M 65.5 64 L 64.5 66 L 65.5 64 Z " /><path fill="rgb(145,139,74)" stroke="rgb(145,139,74)" stroke-width="0" opacity="0.996078431372549" d="M 40.5 66 L 43 67.5 L 37.5 70 L 38.5 68 Q 41 68.7 40.5 66 Z " /><path fill="rgb(145,139,74)" stroke="rgb(145,139,74)" stroke-width="0" opacity="0.996078431372549" d="M 79.5 67 L 82 67.5 Q 79.9 70.8 79.5 67 Z " /><path fill="rgb(145,139,74)" stroke="rgb(145,139,74)" stroke-width="0" opacity="0.996078431372549" d="M 39.5 78 L 42 79.5 L 40.5 80 L 39.5 78 Z " /><path fill="rgb(145,139,74)" stroke="rgb(145,139,74)" stroke-width="0" opacity="0.996078431372549" d="M 40.5 82 Q 43.5 83.5 40.5 85 L 40.5 82 Z " /><path fill="rgb(145,139,74)" stroke="rgb(145,139,74)" stroke-width="0" opacity="0.996078431372549" d="M 52.5 92 L 52 93.5 L 51.5 96 L 50 93.5 L 52.5 92 Z " /><path fill="rgb(144,138,76)" stroke="rgb(144,138,76)" stroke-width="0" opacity="0.996078431372549" d="M 66.5 34 L 65.5 36 L 66.5 34 Z " /><path fill="rgb(144,138,76)" stroke="rgb(144,138,76)" stroke-width="0" opacity="0.996078431372549" d="M 75.5 34 L 76 35.5 L 75.5 38 Q 72.8 36.8 75 35.5 L 75.5 34 Z " /><path fill="rgb(144,138,76)" stroke="rgb(144,138,76)" stroke-width="0" opacity="0.996078431372549" d="M 81 41 L 83 41.5 L 81 42.5 L 81 41 Z " /><path fill="rgb(144,138,76)" stroke="rgb(144,138,76)" stroke-width="0" opacity="0.996078431372549" d="M 60.5 46 L 61.5 48 L 60.5 46 Z " /><path fill="rgb(144,138,76)" stroke="rgb(144,138,76)" stroke-width="0" opacity="0.996078431372549" d="M 81.5 52 L 83.5 55 L 81 54.5 L 81.5 52 Z " /><path fill="rgb(144,138,76)" stroke="rgb(144,138,76)" stroke-width="0" opacity="0.996078431372549" d="M 86.5 56 L 87.5 58 L 86.5 56 Z " /><path fill="rgb(144,138,76)" stroke="rgb(144,138,76)" stroke-width="0" opacity="0.996078431372549" d="M 57.5 64 L 56.5 66 L 57.5 64 Z " /><path fill="rgb(144,138,76)" stroke="rgb(144,138,76)" stroke-width="0" opacity="0.996078431372549" d="M 44.5 65 L 45 67.5 L 44 67.5 L 44.5 65 Z " /><path fill="rgb(144,138,76)" stroke="rgb(144,138,76)" stroke-width="0" opacity="0.996078431372549" d="M 66.5 72 L 67.5 74 L 66.5 72 Z " /><path fill="rgb(144,138,76)" stroke="rgb(144,138,76)" stroke-width="0" opacity="0.996078431372549" d="M 71.5 77 L 73 77.5 L 70.5 79 L 71.5 77 Z " /><path fill="rgb(144,138,76)" stroke="rgb(144,138,76)" stroke-width="0" opacity="0.996078431372549" d="M 45.5 80 L 46 81.5 L 45.5 84 L 42 82.5 L 45 82 L 45.5 80 Z " /><path fill="rgb(144,138,76)" stroke="rgb(144,138,76)" stroke-width="0" opacity="0.996078431372549" d="M 65.5 81 L 66.5 83 L 65.5 81 Z " /><path fill="rgb(144,138,76)" stroke="rgb(144,138,76)" stroke-width="0" opacity="0.996078431372549" d="M 39.5 82 Q 42.5 83.5 39.5 85 L 39.5 82 Z " /><path fill="rgb(144,138,76)" stroke="rgb(144,138,76)" stroke-width="0" opacity="0.996078431372549" d="M 43.5 88 L 42.5 90 L 43.5 88 Z " /><path fill="rgb(144,138,76)" stroke="rgb(144,138,76)" stroke-width="0" opacity="0.996078431372549" d="M 54.5 92 L 55 93.5 L 53 94.5 L 54.5 92 Z " /><path fill="rgb(144,138,76)" stroke="rgb(144,138,76)" stroke-width="0" opacity="0.996078431372549" d="M 57.5 106 Q 59.8 105.3 59 107.5 L 60 110 L 57 109.5 L 58 107.5 L 57.5 106 Z " /><path fill="rgb(144,138,76)" stroke="rgb(144,138,76)" stroke-width="0" opacity="0.996078431372549" d="M 62.5 108 L 63 110.5 L 62.5 113 Q 59.9 113.8 61 110.5 L 62.5 108 Z " /><path fill="rgb(144,138,76)" stroke="rgb(144,138,76)" stroke-width="0" opacity="0.996078431372549" d="M 64.5 108 L 65.5 110 L 64.5 108 Z " /><path fill="rgb(144,138,76)" stroke="rgb(144,138,76)" stroke-width="0" opacity="0.996078431372549" d="M 70.5 108 L 71 109.5 L 67.5 111 L 67.5 110 L 70.5 108 Z " /><path fill="rgb(144,138,76)" stroke="rgb(144,138,76)" stroke-width="0" opacity="0.996078431372549" d="M 71 111 L 73 111.5 L 71 112.5 L 71 111 Z " /><path fill="rgb(144,138,76)" stroke="rgb(144,138,76)" stroke-width="0" opacity="0.996078431372549" d="M 69.5 112 L 71 114.5 L 69 113.5 L 69.5 112 Z " /><path fill="rgb(148,130,81)" stroke="rgb(148,130,81)" stroke-width="0" opacity="0" d="M 77.5 13 L 76.5 15 L 75 14.5 L 77.5 13 Z " /><path fill="rgb(148,130,81)" stroke="rgb(148,130,81)" stroke-width="0" opacity="0" d="M 73.5 15 L 72.5 17 L 71 16.5 L 73.5 15 Z " /><path fill="rgb(148,130,81)" stroke="rgb(148,130,81)" stroke-width="0" opacity="0" d="M 48.5 26 L 49 27.5 L 47.5 31 L 47 28.5 L 48.5 26 Z " /><path fill="rgb(148,130,81)" stroke="rgb(148,130,81)" stroke-width="0" opacity="0" d="M 45.5 32 L 44.5 34 L 42.5 35 L 43.5 33 L 45.5 32 Z " /><path fill="rgb(148,130,81)" stroke="rgb(148,130,81)" stroke-width="0" opacity="0" d="M 34.5 36 L 36 36.5 L 33.5 38 L 34.5 36 Z " /><path fill="rgb(148,130,81)" stroke="rgb(148,130,81)" stroke-width="0" opacity="0" d="M 33.5 46 L 40 47.5 L 36 54 L 33 55.5 L 33.5 57 L 31 55.5 L 31.5 54 Q 32.8 56.3 34 53.5 L 34 51.5 L 35 48.5 L 33.5 46 Z " /><path fill="rgb(148,130,81)" stroke="rgb(148,130,81)" stroke-width="0" opacity="0" d="M 30 58 Q 32.7 56.9 32 59.5 L 30.5 63 L 30 58 Z " /><path fill="rgb(148,130,81)" stroke="rgb(148,130,81)" stroke-width="0" opacity="0" d="M 29 64 L 31 64.5 L 29 65.5 L 29 64 Z " /><path fill="rgb(148,130,81)" stroke="rgb(148,130,81)" stroke-width="0" opacity="0" d="M 27.5 66 L 29 67.5 L 30 79.5 L 27.5 86 L 26.5 84 L 24.5 87 L 22.5 86 L 15.5 90 L 14.5 87 Q 12.1 93.1 4 92 L 2.5 95 Q 0.3 94.3 1 96.5 L 0 96.5 L 0 89.5 L 1.5 89 Q -0.3 86.5 4.5 84 L 8 84 Q 6.9 81.3 9.5 82 L 12 81 L 14.5 77 L 15 79 L 20 76.5 L 18 75.5 L 21 74.5 Q 18.8 73.3 21.5 72 Q 24.1 71.2 23 74.5 L 24 74.5 L 24 71.5 L 27.5 66 Z " /><path fill="rgb(142,137,73)" stroke="rgb(142,137,73)" stroke-width="0" opacity="0.996078431372549" d="M 86.5 20 L 85.5 22 L 86.5 20 Z " /><path fill="rgb(142,137,73)" stroke="rgb(142,137,73)" stroke-width="0" opacity="0.996078431372549" d="M 79.5 21 L 78.5 23 L 79.5 21 Z " /><path fill="rgb(142,137,73)" stroke="rgb(142,137,73)" stroke-width="0" opacity="0.996078431372549" d="M 81.5 24 L 82.5 26 L 81.5 24 Z " /><path fill="rgb(142,137,73)" stroke="rgb(142,137,73)" stroke-width="0" opacity="0.996078431372549" d="M 70.5 25 L 71.5 27 L 70.5 25 Z " /><path fill="rgb(142,137,73)" stroke="rgb(142,137,73)" stroke-width="0" opacity="0.996078431372549" d="M 49.5 42 L 48.5 44 L 49.5 42 Z " /><path fill="rgb(142,137,73)" stroke="rgb(142,137,73)" stroke-width="0" opacity="0.996078431372549" d="M 40.5 61 L 39.5 63 L 40.5 61 Z " /><path fill="rgb(145,138,75)" stroke="rgb(145,138,75)" stroke-width="0" opacity="0.9921568627450981" d="M 67.5 29 L 68 31.5 Q 66.5 34.5 65 31.5 L 67.5 29 Z " /><path fill="rgb(145,138,75)" stroke="rgb(145,138,75)" stroke-width="0" opacity="0.9921568627450981" d="M 63.5 32 L 65 34.5 L 63 33.5 L 63.5 32 Z " /><path fill="rgb(145,138,75)" stroke="rgb(145,138,75)" stroke-width="0" opacity="0.9921568627450981" d="M 68.5 33 L 69 35 L 67 34.5 L 68.5 33 Z " /><path fill="rgb(145,138,75)" stroke="rgb(145,138,75)" stroke-width="0" opacity="0.9921568627450981" d="M 63.5 39 L 66 39.5 L 65.5 41 L 67 41.5 L 65 42.5 L 65.5 44 L 63.5 39 Z " /><path fill="rgb(145,138,75)" stroke="rgb(145,138,75)" stroke-width="0" opacity="0.9921568627450981" d="M 59.5 41 L 58.5 43 L 59.5 41 Z " /><path fill="rgb(145,138,75)" stroke="rgb(145,138,75)" stroke-width="0" opacity="0.9921568627450981" d="M 55.5 42 L 54.5 44 L 55.5 42 Z " /><path fill="rgb(145,138,75)" stroke="rgb(145,138,75)" stroke-width="0" opacity="0.9921568627450981" d="M 87.5 42 L 90 43.5 L 88.5 43 L 87.5 42 Z " /><path fill="rgb(145,138,75)" stroke="rgb(145,138,75)" stroke-width="0" opacity="0.9921568627450981" d="M 58.5 45 L 59.5 47 L 58.5 45 Z " /><path fill="rgb(145,138,75)" stroke="rgb(145,138,75)" stroke-width="0" opacity="0.9921568627450981" d="M 81.5 45 L 80.5 47 L 81.5 45 Z " /><path fill="rgb(145,138,75)" stroke="rgb(145,138,75)" stroke-width="0" opacity="0.9921568627450981" d="M 62.5 47 L 64 49.5 L 63 49.5 L 62.5 47 Z " /><path fill="rgb(145,138,75)" stroke="rgb(145,138,75)" stroke-width="0" opacity="0.9921568627450981" d="M 68.5 52 L 71 53.5 L 70.5 55 L 69.5 53 L 67.5 54 L 68.5 52 Z " /><path fill="rgb(145,138,75)" stroke="rgb(145,138,75)" stroke-width="0" opacity="0.9921568627450981" d="M 83 52 L 85 52.5 L 83 53.5 L 83 52 Z " /><path fill="rgb(145,138,75)" stroke="rgb(145,138,75)" stroke-width="0" opacity="0.9921568627450981" d="M 80.5 54 L 81.5 56 L 83 55.5 Q 83.8 57.8 81.5 57 L 80.5 54 Z " /><path fill="rgb(145,138,75)" stroke="rgb(145,138,75)" stroke-width="0" opacity="0.9921568627450981" d="M 74.5 55 L 75 57 L 69.5 60 L 68.5 58 L 70.5 59 L 74.5 55 Z " /><path fill="rgb(145,138,75)" stroke="rgb(145,138,75)" stroke-width="0" opacity="0.9921568627450981" d="M 66 56 L 68 56.5 L 66 57.5 L 66 56 Z " /><path fill="rgb(145,138,75)" stroke="rgb(145,138,75)" stroke-width="0" opacity="0.9921568627450981" d="M 68.5 61 L 71 61.5 L 67.5 63 L 68.5 61 Z " /><path fill="rgb(145,138,75)" stroke="rgb(145,138,75)" stroke-width="0" opacity="0.9921568627450981" d="M 86.5 62 L 87 64.5 L 85.5 66 L 85 63.5 L 86.5 62 Z " /><path fill="rgb(145,138,75)" stroke="rgb(145,138,75)" stroke-width="0" opacity="0.9921568627450981" d="M 69.5 68 Q 71.8 67.3 71 69.5 Q 69.5 72.5 68 69.5 L 69.5 68 Z " /><path fill="rgb(145,138,75)" stroke="rgb(145,138,75)" stroke-width="0" opacity="0.9921568627450981" d="M 48.5 69 L 50 71.5 L 47 73 L 48.5 69 Z " /><path fill="rgb(145,138,75)" stroke="rgb(145,138,75)" stroke-width="0" opacity="0.9921568627450981" d="M 65 70 L 67 70.5 L 65 71.5 L 65 70 Z " /><path fill="rgb(145,138,75)" stroke="rgb(145,138,75)" stroke-width="0" opacity="0.9921568627450981" d="M 59.5 71 L 60.5 73 L 59.5 71 Z " /><path fill="rgb(145,138,75)" stroke="rgb(145,138,75)" stroke-width="0" opacity="0.9921568627450981" d="M 70.5 76 L 71 78 L 69 77.5 L 70.5 76 Z " /><path fill="rgb(145,138,75)" stroke="rgb(145,138,75)" stroke-width="0" opacity="0.9921568627450981" d="M 63.5 80 Q 67.9 78.5 67 81.5 L 64.5 82 L 63.5 80 Z " /><path fill="rgb(145,138,75)" stroke="rgb(145,138,75)" stroke-width="0" opacity="0.9921568627450981" d="M 69.5 82 L 68.5 84 L 69.5 82 Z " /><path fill="rgb(145,138,75)" stroke="rgb(145,138,75)" stroke-width="0" opacity="0.9921568627450981" d="M 48.5 85 L 47.5 87 L 48.5 85 Z " /><path fill="rgb(145,138,75)" stroke="rgb(145,138,75)" stroke-width="0" opacity="0.9921568627450981" d="M 55 90 L 57 90.5 L 55 91.5 L 55 90 Z " /><path fill="rgb(145,138,75)" stroke="rgb(145,138,75)" stroke-width="0" opacity="0.9921568627450981" d="M 63.5 91 L 62.5 93 L 63.5 91 Z " /><path fill="rgb(145,138,75)" stroke="rgb(145,138,75)" stroke-width="0" opacity="0.9921568627450981" d="M 56.5 102 L 55.5 104 L 56.5 102 Z " /><path fill="rgb(145,138,75)" stroke="rgb(145,138,75)" stroke-width="0" opacity="0.9921568627450981" d="M 67.5 111 Q 70.1 110.2 69 113.5 Q 71.3 114.8 68.5 116 L 68 113.5 L 67.5 111 Z " /><path fill="rgb(146,137,75)" stroke="rgb(146,137,75)" stroke-width="0" opacity="0.9921568627450981" d="M 59.5 45 L 58.5 47 L 59.5 45 Z " /><path fill="rgb(146,137,75)" stroke="rgb(146,137,75)" stroke-width="0" opacity="0.9921568627450981" d="M 90.5 53 L 89.5 55 L 90.5 53 Z " /><path fill="rgb(146,137,75)" stroke="rgb(146,137,75)" stroke-width="0" opacity="0.9921568627450981" d="M 64.5 78 L 67 79.5 L 65.5 79 L 64.5 78 Z " /><path fill="rgb(146,139,75)" stroke="rgb(146,139,75)" stroke-width="0" opacity="0.996078431372549" d="M 52 48 L 55.5 50 L 57 49.5 L 55.5 51 Q 53.8 47.9 52 49.5 L 52 48 Z " /><path fill="rgb(146,139,75)" stroke="rgb(146,139,75)" stroke-width="0" opacity="0.996078431372549" d="M 81.5 50 L 82.5 52 L 81.5 50 Z " /><path fill="rgb(146,139,75)" stroke="rgb(146,139,75)" stroke-width="0" opacity="0.996078431372549" d="M 87.5 50 L 90 51.5 L 88.5 52 L 87.5 50 Z " /><path fill="rgb(146,139,75)" stroke="rgb(146,139,75)" stroke-width="0" opacity="0.996078431372549" d="M 52.5 51 L 53 52.5 L 49.5 54 L 48 53.5 L 47.5 55 L 47 53.5 Q 48.2 50.8 49.5 53 Q 53 54 52.5 51 Z " /><path fill="rgb(146,139,75)" stroke="rgb(146,139,75)" stroke-width="0" opacity="0.996078431372549" d="M 73.5 51 L 77 53.5 L 74.5 52 L 73.5 51 Z " /><path fill="rgb(146,139,75)" stroke="rgb(146,139,75)" stroke-width="0" opacity="0.996078431372549" d="M 79.5 52 L 78.5 54 L 79.5 52 Z " /><path fill="rgb(146,139,75)" stroke="rgb(146,139,75)" stroke-width="0" opacity="0.996078431372549" d="M 52.5 55 L 52 56.5 L 51.5 58 L 51 56.5 L 52.5 55 Z " /><path fill="rgb(146,139,75)" stroke="rgb(146,139,75)" stroke-width="0" opacity="0.996078431372549" d="M 76.5 55 L 75.5 57 L 76.5 55 Z " /><path fill="rgb(146,139,75)" stroke="rgb(146,139,75)" stroke-width="0" opacity="0.996078431372549" d="M 53.5 57 L 54 59.5 L 53 59.5 L 53.5 57 Z " /><path fill="rgb(146,139,75)" stroke="rgb(146,139,75)" stroke-width="0" opacity="0.996078431372549" d="M 49.5 60 L 46.5 64 L 46.5 61 Q 48 63.5 49.5 60 Z " /><path fill="rgb(146,139,75)" stroke="rgb(146,139,75)" stroke-width="0" opacity="0.996078431372549" d="M 87.5 60 L 90 61.5 L 87.5 63 L 87.5 60 Z " /><path fill="rgb(146,139,75)" stroke="rgb(146,139,75)" stroke-width="0" opacity="0.996078431372549" d="M 64.5 63 L 63.5 65 L 64.5 63 Z " /><path fill="rgb(146,139,75)" stroke="rgb(146,139,75)" stroke-width="0" opacity="0.996078431372549" d="M 61.5 65 L 62.5 67 L 61.5 65 Z " /><path fill="rgb(146,139,75)" stroke="rgb(146,139,75)" stroke-width="0" opacity="0.996078431372549" d="M 55.5 66 L 55 67.5 L 54 69.5 L 54.5 71 Q 51.8 69.8 54 68.5 L 55.5 66 Z " /><path fill="rgb(146,139,75)" stroke="rgb(146,139,75)" stroke-width="0" opacity="0.996078431372549" d="M 82.5 69 L 83 71.5 L 82.5 73 L 81 70.5 L 82.5 69 Z " /><path fill="rgb(146,139,75)" stroke="rgb(146,139,75)" stroke-width="0" opacity="0.996078431372549" d="M 51.5 71 L 53 71.5 L 51 72.5 L 54 74.5 L 52.5 74 L 50 72.5 L 51.5 71 Z " /><path fill="rgb(146,139,75)" stroke="rgb(146,139,75)" stroke-width="0" opacity="0.996078431372549" d="M 43.5 75 L 44.5 77 Q 41.7 77.7 43.5 75 Z " /><path fill="rgb(146,139,75)" stroke="rgb(146,139,75)" stroke-width="0" opacity="0.996078431372549" d="M 71.5 78 L 70.5 80 L 71.5 78 Z " /><path fill="rgb(146,139,75)" stroke="rgb(146,139,75)" stroke-width="0" opacity="0.996078431372549" d="M 43.5 79 L 44.5 81 L 43.5 79 Z " /><path fill="rgb(146,139,75)" stroke="rgb(146,139,75)" stroke-width="0" opacity="0.996078431372549" d="M 62.5 90 L 64 90.5 L 61.5 92 L 62.5 90 Z " /><path fill="rgb(146,139,75)" stroke="rgb(146,139,75)" stroke-width="0" opacity="0.996078431372549" d="M 57.5 102 L 58 103.5 L 55.5 105 L 55.5 104 Q 58 104.7 57.5 102 Z " /><path fill="rgb(147,141,77)" stroke="rgb(147,141,77)" stroke-width="0" opacity="0.996078431372549" d="M 82.5 18 L 85 18.5 L 80.5 20 L 80.5 19 L 82.5 18 Z " /><path fill="rgb(147,141,77)" stroke="rgb(147,141,77)" stroke-width="0" opacity="0.996078431372549" d="M 58.5 31 L 61 31.5 L 58.5 32 L 58.5 31 Z " /><path fill="rgb(147,141,77)" stroke="rgb(147,141,77)" stroke-width="0" opacity="0.996078431372549" d="M 53.5 34 Q 55.8 33.3 55 35.5 L 52 37.5 L 53.5 34 Z " /><path fill="rgb(147,141,77)" stroke="rgb(147,141,77)" stroke-width="0" opacity="0.996078431372549" d="M 44.5 38 Q 46.8 37.3 46 39.5 L 44.5 38 Z " /><path fill="rgb(147,141,77)" stroke="rgb(147,141,77)" stroke-width="0" opacity="0.996078431372549" d="M 50.5 38 L 49.5 40 L 50.5 38 Z " /><path fill="rgb(147,141,77)" stroke="rgb(147,141,77)" stroke-width="0" opacity="0.996078431372549" d="M 71 39 L 75 39.5 L 71 41 L 71 39 Z " /><path fill="rgb(147,141,77)" stroke="rgb(147,141,77)" stroke-width="0" opacity="0.996078431372549" d="M 75.5 42 L 76 43.5 L 74.5 46 L 74 43.5 L 75.5 42 Z " /><path fill="rgb(147,141,77)" stroke="rgb(147,141,77)" stroke-width="0" opacity="0.996078431372549" d="M 76.5 45 L 77.5 47 L 76.5 45 Z " /><path fill="rgb(147,141,77)" stroke="rgb(147,141,77)" stroke-width="0" opacity="0.996078431372549" d="M 51.5 46 L 52 47.5 L 48 50.5 L 51.5 46 Z " /><path fill="rgb(147,141,77)" stroke="rgb(147,141,77)" stroke-width="0" opacity="0.996078431372549" d="M 71.5 46 L 71 47.5 Q 71.8 50.1 68.5 49 L 66 47.5 L 67.5 47 L 69.5 48 L 71.5 46 Z " /><path fill="rgb(147,141,77)" stroke="rgb(147,141,77)" stroke-width="0" opacity="0.996078431372549" d="M 67.5 50 L 68 52 L 66 51.5 L 67.5 50 Z " /><path fill="rgb(147,141,77)" stroke="rgb(147,141,77)" stroke-width="0" opacity="0.996078431372549" d="M 56 52 L 58 52.5 L 57.5 55 L 55 54.5 L 56 52 Z " /><path fill="rgb(147,141,77)" stroke="rgb(147,141,77)" stroke-width="0" opacity="0.996078431372549" d="M 46.5 53 L 47 55.5 L 48 57.5 L 45 58 Q 46.1 55.3 43.5 56 L 44 57.5 L 45 59.5 L 43 58.5 L 42 56.5 L 46.5 53 Z " /><path fill="rgb(147,141,77)" stroke="rgb(147,141,77)" stroke-width="0" opacity="0.996078431372549" d="M 53.5 53 L 52.5 55 L 53.5 53 Z " /><path fill="rgb(147,141,77)" stroke="rgb(147,141,77)" stroke-width="0" opacity="0.996078431372549" d="M 55.5 56 L 56 60 L 61.5 61 L 63 60.5 Q 62.3 62.8 58.5 62 L 55 61 L 55.5 56 Z " /><path fill="rgb(147,141,77)" stroke="rgb(147,141,77)" stroke-width="0" opacity="0.996078431372549" d="M 64.5 57 L 63.5 59 L 64.5 57 Z " /><path fill="rgb(147,141,77)" stroke="rgb(147,141,77)" stroke-width="0" opacity="0.996078431372549" d="M 38.5 60 L 39 63.5 L 37 64.5 L 38.5 60 Z " /><path fill="rgb(147,141,77)" stroke="rgb(147,141,77)" stroke-width="0" opacity="0.996078431372549" d="M 50.5 60 L 51.5 62 Q 48.7 62.7 50.5 60 Z " /><path fill="rgb(147,141,77)" stroke="rgb(147,141,77)" stroke-width="0" opacity="0.996078431372549" d="M 61.5 63 L 62.5 65 L 61.5 63 Z " /><path fill="rgb(147,141,77)" stroke="rgb(147,141,77)" stroke-width="0" opacity="0.996078431372549" d="M 83.5 64 L 85 66.5 L 84 66.5 L 83.5 64 Z " /><path fill="rgb(147,141,77)" stroke="rgb(147,141,77)" stroke-width="0" opacity="0.996078431372549" d="M 78.5 65 L 80 65.5 L 77.5 67 L 78.5 65 Z " /><path fill="rgb(147,141,77)" stroke="rgb(147,141,77)" stroke-width="0" opacity="0.996078431372549" d="M 89.5 65 L 93 66.5 L 93 68.5 Q 93.8 70.8 91.5 70 L 87.5 73 Q 89.1 71.3 86 69.5 L 87 68.5 Q 86.3 66.3 88.5 67 L 87.5 70 L 92 66.5 Q 88.7 66.6 89.5 65 Z " /><path fill="rgb(147,141,77)" stroke="rgb(147,141,77)" stroke-width="0" opacity="0.996078431372549" d="M 36 66 Q 39 64.8 38 68.5 L 36 67.5 L 36 66 Z " /><path fill="rgb(147,141,77)" stroke="rgb(147,141,77)" stroke-width="0" opacity="0.996078431372549" d="M 51.5 66 L 54 67 L 53.5 69 L 51.5 66 Z " /><path fill="rgb(147,141,77)" stroke="rgb(147,141,77)" stroke-width="0" opacity="0.996078431372549" d="M 81.5 66 L 83.5 69 L 81.5 66 Z " /><path fill="rgb(147,141,77)" stroke="rgb(147,141,77)" stroke-width="0" opacity="0.996078431372549" d="M 43.5 68 L 45.5 71 L 47 70.5 L 46 74.5 L 46.5 76 L 43 74.5 L 42 69.5 L 43.5 68 Z M 44 71 L 45 75 L 46 73 L 44 71 Z " /><path fill="rgb(147,141,77)" stroke="rgb(147,141,77)" stroke-width="0" opacity="0.996078431372549" d="M 74.5 68 L 77 68.5 L 74.5 69 L 74.5 68 Z " /><path fill="rgb(147,141,77)" stroke="rgb(147,141,77)" stroke-width="0" opacity="0.996078431372549" d="M 78.5 68 L 81 69.5 Q 77 71.5 81 73.5 L 80.5 75 L 79 74.5 L 78.5 77 L 76.5 74 Q 73.9 74.8 75 71.5 L 77.5 70 Q 78.8 72.3 80 69.5 L 78.5 68 Z " /><path fill="rgb(147,141,77)" stroke="rgb(147,141,77)" stroke-width="0" opacity="0.996078431372549" d="M 35.5 70 Q 38.1 69.2 37 72.5 L 36 72.5 L 35.5 70 Z " /><path fill="rgb(147,141,77)" stroke="rgb(147,141,77)" stroke-width="0" opacity="0.996078431372549" d="M 38 70 L 40 70.5 L 39 77 L 37 76.5 L 38 70 Z " /><path fill="rgb(147,141,77)" stroke="rgb(147,141,77)" stroke-width="0" opacity="0.996078431372549" d="M 52.5 70 L 53.5 72 L 52.5 70 Z " /><path fill="rgb(147,141,77)" stroke="rgb(147,141,77)" stroke-width="0" opacity="0.996078431372549" d="M 92.5 72 L 93 74 L 91 73.5 L 92.5 72 Z " /><path fill="rgb(147,141,77)" stroke="rgb(147,141,77)" stroke-width="0" opacity="0.996078431372549" d="M 73.5 73 L 74 76.5 L 73 76.5 L 73.5 73 Z " /><path fill="rgb(147,141,77)" stroke="rgb(147,141,77)" stroke-width="0" opacity="0.996078431372549" d="M 87.5 74 Q 90.8 72.9 90 75.5 L 93 76.5 L 92 81.5 L 93 84.5 Q 93.8 86.8 91.5 86 L 89.5 87 L 85.5 85 L 85 87 L 81 88.5 L 81.5 90 L 79.5 89 L 80.5 92 Q 79 88.5 77.5 91 L 74 93.5 L 75 95.5 L 72 95.5 L 73 91 Q 70 92 71 89 L 73 88.5 L 71 87.5 L 75 85.5 L 73 84.5 L 74.5 84 L 77.5 85 L 79 83.5 Q 77.8 80.8 76.5 83 L 75 82.5 L 77 82 L 78 79.5 L 77.5 78 L 79.5 81 L 80.5 78 L 81.5 80 L 83.5 77 L 81 76.5 Q 82.8 73.3 84.5 77 L 86.5 78 L 87 76.5 Q 84.7 75.3 87.5 74 Z M 86 78 L 82 81 L 85 82 L 86 80 L 86 78 Z M 81 81 L 82 83 Q 83 80 81 81 Z M 79 85 Q 76 87 79 88 L 80 86 L 79 85 Z M 76 86 L 74 90 Q 72 91 75 92 L 77 89 L 76 86 Z " /><path fill="rgb(147,141,77)" stroke="rgb(147,141,77)" stroke-width="0" opacity="0.996078431372549" d="M 52.5 75 L 53 76.5 L 52.5 79 Q 49.8 77.8 52 76.5 L 52.5 75 Z " /><path fill="rgb(147,141,77)" stroke="rgb(147,141,77)" stroke-width="0" opacity="0.996078431372549" d="M 60.5 75 L 61.5 77 L 60.5 75 Z " /><path fill="rgb(147,141,77)" stroke="rgb(147,141,77)" stroke-width="0" opacity="0.996078431372549" d="M 59.5 78 L 63 79 L 60.5 83 L 61.5 80 L 59.5 78 Z " /><path fill="rgb(147,141,77)" stroke="rgb(147,141,77)" stroke-width="0" opacity="0.996078431372549" d="M 55.5 79 L 57 79.5 L 53.5 82 L 53 80 L 55.5 79 Z " /><path fill="rgb(147,141,77)" stroke="rgb(147,141,77)" stroke-width="0" opacity="0.996078431372549" d="M 37 80 L 39 80.5 L 39 82.5 L 38.5 87 L 37.5 85 L 36.5 87 L 35 83.5 L 35.5 81 L 36.5 83 L 37 80 Z " /><path fill="rgb(147,141,77)" stroke="rgb(147,141,77)" stroke-width="0" opacity="0.996078431372549" d="M 49.5 80 L 52.5 84 L 49.5 80 Z " /><path fill="rgb(147,141,77)" stroke="rgb(147,141,77)" stroke-width="0" opacity="0.996078431372549" d="M 60.5 84 L 61.5 87 L 63 87.5 L 61 88.5 L 61.5 90 L 60.5 87 L 57 85.5 L 60.5 84 Z " /><path fill="rgb(147,141,77)" stroke="rgb(147,141,77)" stroke-width="0" opacity="0.996078431372549" d="M 67.5 84 L 69 86.5 L 68 86.5 L 67.5 85 L 66.5 88 L 66 85.5 L 67.5 84 Z " /><path fill="rgb(147,141,77)" stroke="rgb(147,141,77)" stroke-width="0" opacity="0.996078431372549" d="M 53.5 85 Q 51.9 86.8 55 88.5 L 53.5 90 L 51.5 89 L 50 89.5 L 50.5 88 L 48 87.5 Q 52.3 87.8 53.5 85 Z " /><path fill="rgb(147,141,77)" stroke="rgb(147,141,77)" stroke-width="0" opacity="0.996078431372549" d="M 83.5 88 L 84.5 90 L 83.5 88 Z " /><path fill="rgb(147,141,77)" stroke="rgb(147,141,77)" stroke-width="0" opacity="0.996078431372549" d="M 39.5 89 L 41 91.5 L 39 92.5 L 39.5 89 Z " /><path fill="rgb(147,141,77)" stroke="rgb(147,141,77)" stroke-width="0" opacity="0.996078431372549" d="M 69.5 89 L 69 90.5 L 68 93.5 L 70 96.5 L 68 95.5 L 67 93.5 L 69.5 89 Z " /><path fill="rgb(147,141,77)" stroke="rgb(147,141,77)" stroke-width="0" opacity="0.996078431372549" d="M 36.5 90 L 38 92.5 L 37 92.5 L 36.5 90 Z " /><path fill="rgb(147,141,77)" stroke="rgb(147,141,77)" stroke-width="0" opacity="0.996078431372549" d="M 48.5 90 L 49.5 92 Q 46.7 92.7 48.5 90 Z " /><path fill="rgb(147,141,77)" stroke="rgb(147,141,77)" stroke-width="0" opacity="0.996078431372549" d="M 42.5 91 L 45 91.5 L 42.5 92 L 42.5 91 Z " /><path fill="rgb(147,141,77)" stroke="rgb(147,141,77)" stroke-width="0" opacity="0.996078431372549" d="M 58.5 92 L 62 92.5 L 59 93.5 Q 61.3 94.8 58.5 96 L 58.5 94 Q 56.3 93.3 57 95.5 L 55 94.5 L 55.5 93 Q 57 95.5 58.5 92 Z " /><path fill="rgb(147,141,77)" stroke="rgb(147,141,77)" stroke-width="0" opacity="0.996078431372549" d="M 38.5 94 L 39.5 96 L 37 95.5 L 38.5 94 Z " /><path fill="rgb(147,141,77)" stroke="rgb(147,141,77)" stroke-width="0" opacity="0.996078431372549" d="M 66.5 95 L 68.5 98 L 70 98.5 L 68.5 99 Q 64.9 97.9 66.5 95 Z " /><path fill="rgb(147,141,77)" stroke="rgb(147,141,77)" stroke-width="0" opacity="0.996078431372549" d="M 63.5 96 Q 65.8 95.3 65 97.5 L 63.5 96 Z " /><path fill="rgb(147,141,77)" stroke="rgb(147,141,77)" stroke-width="0" opacity="0.996078431372549" d="M 73.5 97 L 75 97.5 L 73 98.5 L 74 99.5 L 74 111.5 L 73 111.5 L 73 100.5 L 72 98.5 L 73.5 97 Z " /><path fill="rgb(147,141,77)" stroke="rgb(147,141,77)" stroke-width="0" opacity="0.996078431372549" d="M 51.5 99 L 50.5 101 L 51.5 99 Z " /><path fill="rgb(147,141,77)" stroke="rgb(147,141,77)" stroke-width="0" opacity="0.996078431372549" d="M 53.5 100 L 55 103.5 L 56 108.5 L 55 108.5 L 53 104.5 L 53.5 103 Q 51.3 103.8 52 101.5 L 53.5 100 Z " /><path fill="rgb(147,141,77)" stroke="rgb(147,141,77)" stroke-width="0" opacity="0.996078431372549" d="M 57.5 100 L 60.5 102 L 60.5 103 L 56 101.5 L 57.5 100 Z " /><path fill="rgb(147,141,77)" stroke="rgb(147,141,77)" stroke-width="0" opacity="0.996078431372549" d="M 61.5 100 L 64 100.5 L 61.5 101 L 61.5 100 Z " /><path fill="rgb(147,141,77)" stroke="rgb(147,141,77)" stroke-width="0" opacity="0.996078431372549" d="M 65 100 L 71 100.5 L 71 102.5 L 69.5 106 L 70 104.5 L 69.5 102 L 68 102.5 L 68.5 101 Q 66.3 100.3 67 102.5 L 66.5 105 L 65 104.5 L 64.5 107 Q 62.8 103.9 61 105.5 L 66 102.5 L 65 100 Z " /><path fill="rgb(147,141,77)" stroke="rgb(147,141,77)" stroke-width="0" opacity="0.996078431372549" d="M 62.5 116 L 63.5 118 Q 60.7 118.7 62.5 116 Z " /><path fill="rgb(147,141,77)" stroke="rgb(147,141,77)" stroke-width="0" opacity="0.996078431372549" d="M 69.5 119 L 70.5 121 L 69.5 119 Z " /><path fill="rgb(143,137,77)" stroke="rgb(143,137,77)" stroke-width="0" opacity="0.996078431372549" d="M 56.5 107 Q 58.8 106.3 58 108.5 L 56.5 107 Z " /><path fill="rgb(143,137,77)" stroke="rgb(143,137,77)" stroke-width="0" opacity="0.996078431372549" d="M 61.5 108 L 62 109.5 L 60.5 112 L 58 110.5 L 61.5 108 Z " /><path fill="rgb(143,137,77)" stroke="rgb(143,137,77)" stroke-width="0" opacity="0.996078431372549" d="M 71.5 114 L 70.5 116 L 69 115.5 L 71.5 114 Z " /><path fill="rgb(143,137,77)" stroke="rgb(143,137,77)" stroke-width="0" opacity="0.996078431372549" d="M 77.5 118 L 81 118.5 L 77.5 119 L 77.5 118 Z " /><path fill="rgb(146,140,77)" stroke="rgb(146,140,77)" stroke-width="0" opacity="0.984313725490196" d="M 68.5 26 L 69.5 28 L 68.5 26 Z " /><path fill="rgb(146,140,77)" stroke="rgb(146,140,77)" stroke-width="0" opacity="0.984313725490196" d="M 68.5 57 L 67.5 59 L 68.5 57 Z " /><path fill="rgb(146,140,77)" stroke="rgb(146,140,77)" stroke-width="0" opacity="0.984313725490196" d="M 63.5 65 L 64.5 67 L 63.5 65 Z " /><path fill="rgb(146,140,77)" stroke="rgb(146,140,77)" stroke-width="0" opacity="0.984313725490196" d="M 68.5 76 L 67.5 78 L 68.5 76 Z " /><path fill="rgb(146,140,77)" stroke="rgb(146,140,77)" stroke-width="0" opacity="0.984313725490196" d="M 68.5 79 L 69 81 L 67 80.5 L 68.5 79 Z " /><path fill="rgb(146,140,77)" stroke="rgb(146,140,77)" stroke-width="0" opacity="0.984313725490196" d="M 63.5 81 L 64.5 83 L 63.5 81 Z " /><path fill="rgb(146,140,77)" stroke="rgb(146,140,77)" stroke-width="0" opacity="0.984313725490196" d="M 68.5 82 L 71 83 L 70.5 85 L 68.5 82 Z " /><path fill="rgb(146,140,77)" stroke="rgb(146,140,77)" stroke-width="0" opacity="0.984313725490196" d="M 68.5 87 L 69 89.5 L 67 90.5 L 68.5 87 Z " /><path fill="rgb(146,140,77)" stroke="rgb(146,140,77)" stroke-width="0" opacity="0.984313725490196" d="M 65.5 94 L 67 94.5 L 63.5 96 L 63.5 95 L 65.5 94 Z " /><path fill="rgb(146,140,77)" stroke="rgb(146,140,77)" stroke-width="0" opacity="0.984313725490196" d="M 69.5 95 L 69 96.5 L 67.5 100 L 67 98 L 65 98.5 L 65.5 100 L 63.5 97 L 65.5 97 L 67.5 98 L 69.5 95 Z " /><path fill="rgb(146,140,77)" stroke="rgb(146,140,77)" stroke-width="0" opacity="0.984313725490196" d="M 67 101 L 69 101.5 L 68 103.5 L 71 107.5 L 67 110 L 67 112 Q 63.3 110.5 64 113.5 L 65.5 113 L 69 114.5 L 67 115.5 Q 67.8 113.3 65.5 114 L 63 115 L 63 111 L 64.5 111 Q 65.6 108.3 69 109 Q 70.1 106.3 67.5 107 L 65 105.5 L 66.5 105 L 68 105.5 L 67 101 Z " /><path fill="rgb(146,140,77)" stroke="rgb(146,140,77)" stroke-width="0" opacity="0.984313725490196" d="M 63 103 L 65 103.5 L 63 104.5 L 63 103 Z " /><path fill="rgb(67,53,35)" stroke="rgb(67,53,35)" stroke-width="0" opacity="0.984313725490196" d="M 89.5 11 L 93 11.5 L 89.5 12 L 89.5 11 Z " /><path fill="rgb(67,53,35)" stroke="rgb(67,53,35)" stroke-width="0" opacity="0.984313725490196" d="M 74.5 16 L 76 16.5 L 73.5 18 L 74.5 16 Z " /><path fill="rgb(67,53,35)" stroke="rgb(67,53,35)" stroke-width="0" opacity="0.984313725490196" d="M 54.5 19 Q 56.8 18.3 56 20.5 L 54.5 19 Z " /><path fill="rgb(67,53,35)" stroke="rgb(67,53,35)" stroke-width="0" opacity="0.984313725490196" d="M 69.5 19 Q 72.1 18.3 71 21 L 68.5 21 L 63.5 25 L 63 23.5 L 69.5 19 Z " /><path fill="rgb(67,53,35)" stroke="rgb(67,53,35)" stroke-width="0" opacity="0.984313725490196" d="M 75.5 19 L 74.5 21 L 75.5 19 Z " /><path fill="rgb(67,53,35)" stroke="rgb(67,53,35)" stroke-width="0" opacity="0.984313725490196" d="M 70.5 22 L 69.5 24 L 66.5 26 L 68.5 23 L 70.5 22 Z " /><path fill="rgb(67,53,35)" stroke="rgb(67,53,35)" stroke-width="0" opacity="0.984313725490196" d="M 49.5 27 L 50 30.5 L 48 31.5 L 49.5 27 Z " /><path fill="rgb(67,53,35)" stroke="rgb(67,53,35)" stroke-width="0" opacity="0.984313725490196" d="M 41.5 54 L 39.5 57 L 41.5 54 Z " /><path fill="rgb(67,53,35)" stroke="rgb(67,53,35)" stroke-width="0" opacity="0.984313725490196" d="M 30.5 76 L 31 82.5 L 30 82.5 L 30.5 76 Z " /><path fill="rgb(67,53,35)" stroke="rgb(67,53,35)" stroke-width="0" opacity="0.984313725490196" d="M 87.5 89 L 93 89.5 L 87.5 90 L 87.5 89 Z " /><path fill="rgb(67,53,35)" stroke="rgb(67,53,35)" stroke-width="0" opacity="0.984313725490196" d="M 84.5 90 L 84.5 92 L 88 92.5 Q 81.2 93.7 78 98.5 L 77 102.5 L 79 110.5 L 85.5 118 L 93 120 Q 94.3 123.3 89.5 122 L 89.5 121 L 91 120.5 L 88.5 120 L 86.5 120 L 82 117.5 L 82 115.5 L 78 110.5 L 76 101.5 L 81.5 94 L 84 92.5 L 82 91.5 L 84.5 90 Z " /><path fill="rgb(67,53,35)" stroke="rgb(67,53,35)" stroke-width="0" opacity="0.984313725490196" d="M 89.5 91 L 93 91.5 L 89.5 92 L 89.5 91 Z " /><path fill="rgb(67,53,35)" stroke="rgb(67,53,35)" stroke-width="0" opacity="0.984313725490196" d="M 32.5 92 L 35 97.5 L 34 97.5 L 32.5 92 Z " /><path fill="rgb(67,53,35)" stroke="rgb(67,53,35)" stroke-width="0" opacity="0.984313725490196" d="M 80.5 92 L 76.5 97 L 80.5 92 Z " /><path fill="rgb(67,53,35)" stroke="rgb(67,53,35)" stroke-width="0" opacity="0.984313725490196" d="M 42.5 94 L 43 95.5 L 39.5 100 L 38 100.5 L 38.5 102 Q 36.3 102.8 37 100.5 L 37 98.5 L 36 96.5 L 38 97.5 Q 37.3 99.8 39.5 99 L 42.5 94 Z " /><path fill="rgb(67,53,35)" stroke="rgb(67,53,35)" stroke-width="0" opacity="0.984313725490196" d="M 90.5 105 L 91 107 Q 93.7 105.9 93 108.5 L 90 106.5 L 90.5 105 Z " /><path fill="rgb(67,53,35)" stroke="rgb(67,53,35)" stroke-width="0" opacity="0.984313725490196" d="M 49.5 108 L 57.5 118 L 67 123.5 L 65.5 124 Q 56.8 119.8 51 112.5 L 49.5 108 Z " /><path fill="rgb(67,53,35)" stroke="rgb(67,53,35)" stroke-width="0" opacity="0.984313725490196" d="M 68.5 124 Q 78.8 122.2 83 126.5 L 81.5 127 L 77.5 125 L 73.5 126 L 68.5 125 L 68.5 124 Z " /><path fill="rgb(67,53,35)" stroke="rgb(67,53,35)" stroke-width="0" opacity="0.984313725490196" d="M 85.5 126 L 91 134.5 L 89 133.5 L 85 127.5 L 85.5 126 Z " /><path fill="rgb(67,53,35)" stroke="rgb(67,53,35)" stroke-width="0" opacity="0.984313725490196" d="M 83.5 128 L 87 132.5 L 85 133.5 Q 85.5 128.8 83.5 128 Z " /><path fill="rgb(207,206,141)" stroke="rgb(207,206,141)" stroke-width="0" opacity="0.9725490196078431" d="M 86.5 93 L 93 93 L 93 99 L 90 100.5 L 89 105.5 L 91.5 109 L 93 109.5 L 93 119 L 86.5 118 L 81 112.5 Q 77.1 108.4 78 99.5 L 86.5 93 Z " /><path fill="rgb(207,206,141)" stroke="rgb(207,206,141)" stroke-width="0" opacity="0.9725490196078431" d="M 12.5 101 Q 17.8 99.3 16 104.5 L 12.5 106 L 11 102.5 L 12.5 101 Z " /><path fill="rgb(207,206,141)" stroke="rgb(207,206,141)" stroke-width="0" opacity="0.9725490196078431" d="M 84.5 120 Q 87.3 123.7 93 123 L 93 131.5 L 92 132.5 L 93 134.5 L 91 133.5 L 86 125.5 Q 86.5 120.8 84.5 120 Z M 87 123 L 87 125 L 89 124 L 87 123 Z " /><path fill="rgb(207,206,141)" stroke="rgb(207,206,141)" stroke-width="0" opacity="0.9725490196078431" d="M 16.5 122 Q 24.3 120.3 26 124.5 L 25 131 L 19.5 133 L 15 131 L 14 125.5 L 14.5 123 L 16.5 122 Z " /><path fill="rgb(207,206,141)" stroke="rgb(207,206,141)" stroke-width="0" opacity="0.9725490196078431" d="M 47 128 L 52 130.5 Q 52.8 134.3 50.5 135 L 43 135 L 43 132 L 45 132 L 47 128 Z " /><path fill="rgb(171,149,99)" stroke="rgb(171,149,99)" stroke-width="0" opacity="0.00392156862745098" d="M 29.5 84 L 30 87.5 L 29 87.5 L 29.5 84 Z " /><path fill="rgb(171,149,99)" stroke="rgb(171,149,99)" stroke-width="0" opacity="0.00392156862745098" d="M 30.5 89 L 32 94.5 L 31 100 Q 33.7 101.1 33 98.5 L 36 100.5 Q 33.2 102.3 37.5 104 L 41.5 103 L 42.5 104 L 45 102.5 Q 43.9 105.8 46.5 105 L 48 108.5 Q 47.3 110.8 49.5 110 L 50 112.5 L 50.5 114 L 52 113.5 L 51.5 116 Q 44.7 117.3 41.5 115 L 40 115.5 Q 42.3 114.3 39.5 113 L 36 114 L 35.5 112 L 31 113 Q 32 109.2 29.5 108 L 24.5 109 L 21.5 107 L 18.5 109 L 16.5 109 L 15 108.5 L 18 106.5 L 16.5 106 L 14 107 Q 15.1 109.7 12.5 109 L 10 113 Q 7.3 111.9 8 114.5 L 7 117.5 L 7 120 Q 4.3 118.9 5 121.5 L 0.5 129 L 0 108.5 L 1.5 105 L 3 105.5 L 4.5 102 Q 7.1 102.7 6 100 L 8 100 L 8 98 L 10.5 98 L 14.5 95 L 15.5 98 L 20.5 95 L 26.5 97 L 30 94.5 L 30.5 89 Z M 13 100 L 11 103 Q 11 106 14 107 L 16 106 L 17 103 L 13 100 Z M 20 106 L 19 108 L 21 107 L 20 106 Z " /><path fill="rgb(171,149,99)" stroke="rgb(171,149,99)" stroke-width="0" opacity="0.00392156862745098" d="M 55.5 119 L 58 119.5 L 57 120.5 L 58.5 123 L 55 121.5 L 55.5 119 Z " /><path fill="rgb(171,149,99)" stroke="rgb(171,149,99)" stroke-width="0" opacity="0.00392156862745098" d="M 81.5 127 L 82.5 129 L 81.5 127 Z " /><path fill="rgb(159,139,89)" stroke="rgb(159,139,89)" stroke-width="0" opacity="0.00392156862745098" d="M 64.5 20 L 63.5 22 L 64.5 20 Z " /><path fill="rgb(159,139,89)" stroke="rgb(159,139,89)" stroke-width="0" opacity="0.00392156862745098" d="M 40.5 47 L 41 48.5 L 39 49.5 L 40.5 47 Z " /><path fill="rgb(159,139,89)" stroke="rgb(159,139,89)" stroke-width="0" opacity="0.00392156862745098" d="M 34.5 54 L 33.5 56 L 34.5 54 Z " /><path fill="rgb(159,139,89)" stroke="rgb(159,139,89)" stroke-width="0" opacity="0.00392156862745098" d="M 29.5 66 L 30 75.5 L 29 75.5 L 29.5 66 Z " /><path fill="rgb(159,139,89)" stroke="rgb(159,139,89)" stroke-width="0" opacity="0.00392156862745098" d="M 29.5 80 L 30 83.5 L 29 88 L 31 88.5 Q 28.8 89.8 30 94.5 L 28.5 96 L 24.5 97 L 20.5 95 L 15.5 98 L 14.5 95 Q 12.6 98.6 8 98 L 8 100 L 6 100 Q 7.1 102.7 4.5 102 L 2.5 106 L 0 105.5 Q -1 98 1 95 L 4 93.5 Q 3.1 90.1 8.5 92 L 13 88.5 L 12.5 87 L 15 87.5 L 15.5 90 L 23.5 86 Q 24.8 88.3 26 85.5 L 26.5 84 L 27.5 86 L 29.5 80 Z " /><path fill="rgb(159,139,89)" stroke="rgb(159,139,89)" stroke-width="0" opacity="0.00392156862745098" d="M 31 95 L 33 95.5 L 33 97.5 Q 34 101.3 31 100 L 31 95 Z " /><path fill="rgb(95,81,50)" stroke="rgb(95,81,50)" stroke-width="0" opacity="0.9882352941176471" d="M 88.5 11 L 93 12 L 92.5 15 L 90 14 Q 91.3 17 87.5 16 L 86 15.5 Q 86.8 18.1 83.5 17 L 75.5 21 L 74 20.5 Q 74.8 22.8 72.5 22 L 69.5 23 L 68 23.5 L 68.5 25 Q 67.3 22.7 66 25.5 Q 66.8 27.8 64.5 27 L 62 28.5 L 63 26.5 L 61.5 26 L 60 28.5 L 60.5 30 Q 57.1 30.9 59 25.5 L 59 23.5 Q 59.7 20.5 56 22 Q 56.9 27.4 53 29.5 L 53 31.5 L 49.5 38 L 48 37.5 L 48.5 36 Q 40.8 36.3 37 40.5 L 42 44.5 L 38.5 46 L 38 44 L 33.5 45 L 32 41.5 L 34 39.5 Q 33.3 37.3 35.5 38 L 38.5 36 L 40.5 36 L 46.5 33 L 48 33.5 L 49 31.5 L 48.5 30 L 50 30.5 L 51 25.5 L 50.5 24 Q 52.8 24.8 52 22.5 L 54.5 18 L 58.5 17 L 60.5 20 L 62 19.5 Q 59.5 21 63 22.5 L 63.5 25 L 68 21.5 L 67.5 20 L 71 21 L 72.5 17 L 74.5 17 Q 76.8 17.8 76 15.5 L 78 15.5 Q 77.2 12.9 80.5 14 L 84.5 12 L 86.5 12 L 88.5 11 Z M 55 19 L 56 21 Q 57 18 55 19 Z " /><path fill="rgb(95,81,50)" stroke="rgb(95,81,50)" stroke-width="0" opacity="0.9882352941176471" d="M 73.5 41 L 74 42.5 L 71.5 46 L 68.5 47 L 69.5 45 L 71 45 Q 69.5 41.3 72.5 42 L 73.5 41 Z " /><path fill="rgb(95,81,50)" stroke="rgb(95,81,50)" stroke-width="0" opacity="0.9882352941176471" d="M 44.5 46 L 45.5 48 Q 43.3 47.3 44 49.5 L 42.5 52 L 47 48.5 Q 46 44.8 49 46 L 48 50 L 40 55.5 L 41 56.5 L 38 59.5 L 35 67.5 L 34 82.5 L 36 92.5 L 35.5 94 Q 37.8 93.3 37 95.5 L 37 97.5 L 37.5 99 L 39 98.5 L 38.5 100 L 41 98.5 L 40.5 97 L 42 97.5 L 44.5 92 Q 47.8 90.9 47 93.5 L 49 98.5 L 48.5 100 Q 50.8 99.3 50 101.5 L 55 111.5 L 60 118 L 68.5 121 L 75.5 121 L 79.5 120 L 80.5 123 L 83.5 125 Q 84.8 122.7 86 125.5 L 84.5 128 L 88 130.5 L 90 134.5 L 86 135 L 87 132.5 L 83 127.5 L 83.5 126 Q 80.2 127.1 81 124.5 L 78.5 126 L 77 125.5 L 79 124.5 L 77.5 122 Q 75.5 126 67.5 124 L 60 119.5 L 58.5 117 L 57.5 118 L 53 113.5 Q 55.3 112.3 52.5 111 L 51 110.5 L 51.5 109 L 48 106.5 L 46 101 L 40.5 103 L 38 102.5 Q 40.3 101.2 37.5 100 Q 36.3 102.3 35 99.5 L 33.5 93 L 32 93.5 L 32 91.5 Q 32.7 85.8 30 83.5 Q 32.5 82 31 76.5 Q 28.5 75 30 69.5 L 34 56 Q 37 57.3 36 53.5 L 44.5 46 Z " /><path fill="rgb(95,81,50)" stroke="rgb(95,81,50)" stroke-width="0" opacity="0.9882352941176471" d="M 64.5 51 L 65 53.5 L 61 60 Q 58.3 61.1 59 58.5 L 58 58.5 L 57.5 60 L 57 58.5 L 58 54.5 L 60.5 52 L 62.5 52 L 64.5 51 Z " /><path fill="rgb(95,81,50)" stroke="rgb(95,81,50)" stroke-width="0" opacity="0.9882352941176471" d="M 86.5 89 L 87 91 Q 89.7 89.9 89 92.5 L 87.5 92 Q 82.4 91.4 81 94.5 L 81.5 96 Q 79.7 93.2 78 97.5 L 78.5 99 L 77 98.5 L 78 102.5 L 77 107.5 L 79 107.5 L 77 110.5 L 78.5 111 L 80 110.5 Q 76.5 112 79 113.5 L 79.5 115 L 82 113.5 L 82 115.5 L 81.5 118 L 75 109.5 L 74 99.5 L 75 97 L 77 96.5 L 76 95.5 L 79.5 92 L 81 92.5 L 81.5 91 L 83.5 92 L 83.5 90 Q 85 92.5 86.5 89 Z " /><path fill="rgb(95,81,50)" stroke="rgb(95,81,50)" stroke-width="0" opacity="0.9882352941176471" d="M 91.5 100 L 92 103.5 L 90 104.5 L 91.5 100 Z " /><path fill="rgb(95,81,50)" stroke="rgb(95,81,50)" stroke-width="0" opacity="0.9882352941176471" d="M 91.5 119 L 90.5 121 L 88.5 122 L 88 120 L 91.5 119 Z " /><path fill="rgb(193,170,118)" stroke="rgb(193,170,118)" stroke-width="0" opacity="0.00392156862745098" d="M 35.5 101 L 37.5 104 L 35.5 101 Z " /><path fill="rgb(193,170,118)" stroke="rgb(193,170,118)" stroke-width="0" opacity="0.00392156862745098" d="M 45.5 102 L 46 104.5 L 45 104.5 L 45.5 102 Z " /><path fill="rgb(193,170,118)" stroke="rgb(193,170,118)" stroke-width="0" opacity="0.00392156862745098" d="M 13.5 106 L 15.5 107 L 17.5 106 L 19.5 106 Q 21.4 109.6 27.5 109 L 29.5 108 Q 32 109.2 31 113 L 35.5 112 L 36 114 L 39.5 113 Q 42.3 117.7 51.5 116 L 50 113.5 L 49 111.5 L 51 112.5 L 57.5 120 L 69.5 126 L 78.5 126 L 84 130.5 L 85 133.5 L 82.5 135 L 52 135 Q 53.3 130.4 50.5 129 L 47.5 128 L 43 131.5 L 42.5 135 L 0 135 L 0 129.5 L 5 120 Q 8 121.3 7 117.5 L 8 114.5 L 10 111.5 L 14 109 L 13.5 106 Z M 57 120 L 55 122 L 59 123 L 57 120 Z M 17 122 L 15 123 L 14 126 L 15 131 L 20 133 L 25 131 L 26 125 Q 24 120 17 122 Z " /></svg>