<svg viewBox="0 0 38 84" version="1.1" xmlns="http://www.w3.org/2000/svg" desc="Created with imagetracer.js version 1.2.6" ><path fill="rgb(209,186,149)" stroke="rgb(209,186,149)" stroke-width="0" opacity="0" d="M 0.5 1 L 2 3.5 L 1 4.5 L 4 7.5 L 3 8.5 L 4.5 11 Q 6.8 10.3 6 12.5 L 9 18 Q 11.7 16.9 11 19.5 L 14 21 L 19 34.5 L 18 34.5 L 13 24.5 L 9.5 21 L 7 19.5 L 6 17.5 L 7 16.5 L 2 11.5 Q -1.1 7.6 0.5 1 Z " /><path fill="rgb(216,193,156)" stroke="rgb(216,193,156)" stroke-width="0" opacity="0" d="M 2 0 L 5 0.5 L 4 1.5 L 7 4.5 L 7 8.5 L 9 10.5 Q 8.3 12.8 10.5 12 L 18.5 22 Q 21.1 21.2 20 24.5 L 24 27.5 L 23 30.5 L 24.5 33 L 22.5 34 L 20 29.5 L 17 22 L 13 21 L 10.5 16 L 9 15.5 L 9.5 14 L 7 12.5 Q 7.8 10.3 5.5 11 Q 7.2 8.7 3 6.5 L 2 0 Z " /><path fill="rgb(223,203,166)" stroke="rgb(223,203,166)" stroke-width="0" opacity="0" d="M 7.5 0 Q 11.3 -1.3 10 2.5 Q 14.8 5.8 16.5 12 L 18 11.5 Q 15.8 12.8 18.5 14 L 25.5 20 L 27 19.5 L 25.5 21 L 22.5 20 L 21 19.5 Q 23.7 17.7 19.5 16 L 17.5 17 L 17.5 15 L 12 10.5 L 12.5 9 Q 9.2 10.1 10 7.5 L 9 4 L 7 3.5 L 7.5 2 L 6 1.5 L 7.5 0 Z " /><path fill="rgb(230,209,172)" stroke="rgb(230,209,172)" stroke-width="0" opacity="0" d="M 10 0 L 16 1 L 16.5 4 L 17.5 2 L 18 3.5 L 17 5.5 L 20 7 L 20 10 L 24 10 L 24 11.5 L 24.5 14 L 30 15 Q 28.9 17.7 31.5 17 L 38 22.5 L 37.5 28 L 34 26.5 Q 35.5 22.1 32.5 23 Q 31.3 19.2 27 20 Q 28.1 17.3 25.5 18 L 23 17.5 L 10 2.5 L 10 0 Z " /><path fill="rgb(230,209,172)" stroke="rgb(230,209,172)" stroke-width="0" opacity="0" d="M 36 29 L 38 29.5 L 36 30.5 L 36 29 Z " /><path fill="rgb(235,215,180)" stroke="rgb(235,215,180)" stroke-width="0" opacity="0" d="M 16.5 2 L 17.5 4 L 19.5 3 Q 25.8 7.7 36.5 8 L 38 9.5 L 38 21.5 L 36.5 23 L 35.5 20 L 30 17 Q 31.1 14.3 28.5 15 L 24 13.5 L 24 11.5 L 24 10 L 20 10 Q 21.5 6.2 18.5 7 Q 14.8 5.2 16.5 2 Z " /><path fill="rgb(241,220,186)" stroke="rgb(241,220,186)" stroke-width="0" opacity="0.1568627450980392" d="M 32.5 7 L 35 7.5 L 32.5 8 L 32.5 7 Z " /><path fill="rgb(241,220,186)" stroke="rgb(241,220,186)" stroke-width="0" opacity="0.1568627450980392" d="M 36.5 45 Q 39.1 44.2 38 47.5 L 37 47.5 L 36.5 45 Z " /><path fill="rgb(201,175,137)" stroke="rgb(201,175,137)" stroke-width="0" opacity="0" d="M 0 13 Q 3.3 11.7 2 16.5 L 4.5 21 Q 6.8 20.3 6 22.5 L 9.5 29 L 10.5 27 L 14 36 L 16 36.5 L 13 38.5 L 15 39.5 L 15 41.5 L 14.5 43 L 10 39.5 L 10.5 37 L 12 36.5 L 10.5 34 L 9.5 36 L 8.5 33 L 7 32.5 L 7.5 29 L 5 27.5 L 1 19.5 L 0 13 Z " /><path fill="rgb(206,181,143)" stroke="rgb(206,181,143)" stroke-width="0" opacity="0" d="M 0.5 7 Q 1.8 13.8 7 16.5 L 7 18.5 L 8.5 21 L 13 24.5 L 20 36.5 L 18 37 Q 19 40 16 39 L 16 36 Q 13.3 37.1 14 34.5 L 10.5 27 L 9.5 29 L 6 21 L 3 19.5 L 2 13 L 0 13 L 0.5 7 Z " /><path fill="rgb(206,181,143)" stroke="rgb(206,181,143)" stroke-width="0" opacity="0" d="M 18.5 41 L 20 43.5 L 18.5 47 L 18.5 41 Z " /><path fill="rgb(214,189,150)" stroke="rgb(214,189,150)" stroke-width="0" opacity="0" d="M 0.5 0 Q 3.1 -0.8 2 2.5 L 1 2.5 L 0.5 0 Z " /><path fill="rgb(214,189,150)" stroke="rgb(214,189,150)" stroke-width="0" opacity="0" d="M 1.5 4 Q 3.8 3.3 3 5.5 L 1.5 4 Z " /><path fill="rgb(214,189,150)" stroke="rgb(214,189,150)" stroke-width="0" opacity="0" d="M 3 8 L 6 9.5 Q 4.5 12.5 3 9.5 L 3 8 Z " /><path fill="rgb(214,189,150)" stroke="rgb(214,189,150)" stroke-width="0" opacity="0" d="M 6.5 11 L 8.5 14 L 10 14.5 L 9.5 16 L 12 17.5 L 13 20.5 L 11 19.5 L 9 16.5 L 6 12.5 L 6.5 11 Z " /><path fill="rgb(214,189,150)" stroke="rgb(214,189,150)" stroke-width="0" opacity="0" d="M 14.5 21 L 17 22 L 17 24.5 L 22 31.5 Q 19.8 32.8 22.5 34 L 25 34.5 L 24.5 37 L 21 39.5 L 19.5 43 L 18 37 L 20 36.5 L 14 22.5 L 14.5 21 Z " /><path fill="rgb(221,196,158)" stroke="rgb(221,196,158)" stroke-width="0" opacity="0" d="M 5.5 0 L 12 10.5 L 12 13 L 15 13 Q 13.5 16.8 16.5 16 L 16.5 18 Q 19.8 16.9 19 19.5 L 25.5 27 Q 27 24.5 28.5 28 L 31 28.5 L 26 29.5 L 26.5 32 L 30 32.5 L 29 34.5 L 30.5 34 Q 34.3 33 33 36 L 27.5 35 L 26 35.5 L 26 33.5 Q 26.8 31.3 24.5 32 L 23 29.5 L 24 27.5 L 22 27.5 L 22.5 26 L 20 24.5 Q 21.1 21.2 18.5 22 L 10.5 12 Q 8.3 12.8 9 10.5 L 5 4.5 Q 7.5 3 4 1.5 L 5.5 0 Z " /><path fill="rgb(225,199,161)" stroke="rgb(225,199,161)" stroke-width="0" opacity="0" d="M 12.5 11 L 13.5 13 Q 10.7 13.7 12.5 11 Z " /><path fill="rgb(225,199,161)" stroke="rgb(225,199,161)" stroke-width="0" opacity="0" d="M 15.5 14 L 18 15.5 L 15 16 L 15.5 14 Z " /><path fill="rgb(225,199,161)" stroke="rgb(225,199,161)" stroke-width="0" opacity="0" d="M 19.5 16 L 21 20 L 24 21.5 Q 23.1 24.5 27.5 23 L 33 27 L 33 29 Q 30.3 27.9 31 30.5 L 34 31.5 Q 33.3 35.3 35.5 36 Q 36.8 33.8 38 36.5 L 36 37 L 34.5 40 L 34 38.5 L 34.5 37 Q 31.5 37.7 33 34 L 29.5 34 L 29.5 32 L 26 31.5 L 26.5 29 L 29.5 30 L 30.5 28 L 26.5 26 Q 25.3 28.3 24 25.5 L 19 18 L 16 17.5 L 19.5 16 Z " /><path fill="rgb(225,199,161)" stroke="rgb(225,199,161)" stroke-width="0" opacity="0" d="M 36.5 41 L 38 44.5 L 37 44.5 L 36.5 41 Z " /><path fill="rgb(228,203,165)" stroke="rgb(228,203,165)" stroke-width="0" opacity="0" d="M 16.5 10 L 17 12 L 23 16.5 L 19.5 14 L 16 11.5 L 16.5 10 Z " /><path fill="rgb(228,203,165)" stroke="rgb(228,203,165)" stroke-width="0" opacity="0" d="M 20.5 17 L 21.5 19 L 20.5 17 Z " /><path fill="rgb(228,203,165)" stroke="rgb(228,203,165)" stroke-width="0" opacity="0" d="M 24.5 17 L 27 18.5 L 26.5 20 L 29.5 20 L 34 23 Q 33 26.8 35.5 28 Q 36.8 25.8 38 28.5 L 36 29 L 36.5 31 L 38 30.5 L 37.5 36 L 34 34.5 Q 34.8 30.8 32.5 30 L 31 30.5 Q 30.3 27.9 33 29 L 33 27 L 28 23.5 L 27.5 21 L 27 23 L 24 21.5 L 25 19.5 L 24.5 17 Z " /><path fill="rgb(228,203,165)" stroke="rgb(228,203,165)" stroke-width="0" opacity="0" d="M 36 37 Q 39.7 35.6 38 41.5 L 36 40.5 L 36 37 Z " /><path fill="rgb(192,165,126)" stroke="rgb(192,165,126)" stroke-width="0" opacity="0" d="M 0.5 21 Q 2.8 22.8 2 27.5 L 8 38.5 L 9 47.5 L 7.5 50 L 6 46 L 4 45.5 L 7 44.5 L 0 31.5 L 0.5 21 Z " /><path fill="rgb(198,171,132)" stroke="rgb(198,171,132)" stroke-width="0" opacity="0" d="M 0.5 17 L 6.5 29 L 8 29.5 L 7.5 33 L 9 33.5 Q 6.8 34.8 9.5 36 L 10.5 34 L 12 36.5 L 10 37.5 L 10.5 40 L 14 42.5 L 15 44.5 L 13 48 Q 10 49 11 46 Q 14 47 13 44 L 10.5 43 L 9 43.5 L 7 35.5 L 2 27.5 L 0.5 17 Z " /><path fill="rgb(198,171,132)" stroke="rgb(198,171,132)" stroke-width="0" opacity="0" d="M 13.5 49 L 14.5 51 L 13.5 49 Z " /><path fill="rgb(198,171,132)" stroke="rgb(198,171,132)" stroke-width="0" opacity="0" d="M 12.5 53 L 10.5 56 L 12.5 53 Z " /><path fill="rgb(210,178,136)" stroke="rgb(210,178,136)" stroke-width="0" opacity="0.00784313725490196" d="M 14.5 37 Q 17.1 36.3 16 39 L 18 39 L 18 46.5 L 19 48.5 L 17 47.5 L 16 45.5 L 17 43.5 Q 12.8 41.3 14.5 39 L 13 38.5 L 14.5 37 Z " /><path fill="rgb(210,178,136)" stroke="rgb(210,178,136)" stroke-width="0" opacity="0.00784313725490196" d="M 22 73 L 27.5 74 L 29 73.5 Q 28.1 76.9 33.5 75 L 35 74.5 L 34.5 77 L 29.5 76 L 26 77 Q 27.7 72.9 23.5 74 L 22 74.5 L 22 73 Z " /><path fill="rgb(216,184,143)" stroke="rgb(216,184,143)" stroke-width="0" opacity="0.027450980392156862" d="M 34.5 75 L 36.5 76 L 38 75.5 Q 38.8 77.8 36.5 77 L 34.5 75 Z " /><path fill="rgb(221,191,150)" stroke="rgb(221,191,150)" stroke-width="0" opacity="0.0196078431372549" d="M 23.5 33 L 26 34.5 Q 25.3 36.8 27.5 36 L 27.5 37 L 25.5 38 L 24 35.5 L 24.5 34 L 23.5 33 Z " /><path fill="rgb(221,191,150)" stroke="rgb(221,191,150)" stroke-width="0" opacity="0.0196078431372549" d="M 31.5 73 L 34 73.5 L 31.5 74 L 31.5 73 Z " /><path fill="rgb(225,195,153)" stroke="rgb(225,195,153)" stroke-width="0" opacity="0.00784313725490196" d="M 25.5 32 L 27.5 35 L 29.5 34 L 29.5 36 Q 33.3 35.3 34 37.5 L 31.5 38 L 29.5 38 L 26 37.5 L 28 36.5 Q 23.8 35.3 25.5 32 Z " /><path fill="rgb(225,195,153)" stroke="rgb(225,195,153)" stroke-width="0" opacity="0.00784313725490196" d="M 35.5 40 L 37 43.5 L 36 43.5 L 35.5 40 Z " /><path fill="rgb(225,195,153)" stroke="rgb(225,195,153)" stroke-width="0" opacity="0.00784313725490196" d="M 23.5 71 L 26 72.5 L 24.5 73 L 23.5 71 Z " /><path fill="rgb(191,160,119)" stroke="rgb(191,160,119)" stroke-width="0" opacity="0" d="M 0.5 32 L 7 44.5 L 4 45.5 L 6 46 L 9 54.5 L 9 56.5 L 10 59.5 Q 7.8 60.8 9 65.5 Q 12.5 67 10 68.5 L 9 73 Q 5 74.4 7 67.5 L 5 63.5 L 5.5 62 L 4 61.5 L 7 60.5 L 4 55.5 L 5 52.5 L 3 51.5 L 4 50.5 Q 0.9 48.8 2.5 47 Q 0.3 47.8 1 45.5 L 3 45.5 L 0 40.5 L 0 37.5 L 0 35.5 L 0.5 32 Z " /><path fill="rgb(191,160,119)" stroke="rgb(191,160,119)" stroke-width="0" opacity="0" d="M 10.5 73 L 18 74.5 L 10 75 L 10.5 73 Z " /><path fill="rgb(191,160,119)" stroke="rgb(191,160,119)" stroke-width="0" opacity="0" d="M 12.5 77 L 16.5 77 L 29 83.5 L 22.5 84 L 17 80.5 L 16.5 79 L 15 79.5 Q 15.8 76.9 12.5 78 L 12.5 77 Z " /><path fill="rgb(202,169,126)" stroke="rgb(202,169,126)" stroke-width="0" opacity="0" d="M 10.5 43 L 13 44.5 L 11 48 Q 13.7 46.9 13 49.5 L 14 52 L 17.5 51 L 17.5 52 Q 14.9 51.2 16 54.5 L 15 54.5 Q 15.8 51.9 12.5 53 Q 9.3 54.8 13 56.5 L 12 60.5 L 12.5 64 Q 10.3 63.3 11 65.5 L 11.5 67 Q 9.3 66.3 10 62.5 L 11 58.5 L 10 56.5 L 10 54.5 L 11 51.5 L 9 44.5 L 10.5 43 Z " /><path fill="rgb(202,169,126)" stroke="rgb(202,169,126)" stroke-width="0" opacity="0" d="M 18.5 74 L 21 74.5 L 18 75 L 17.5 77 L 16.5 75 L 18.5 74 Z " /><path fill="rgb(202,169,126)" stroke="rgb(202,169,126)" stroke-width="0" opacity="0" d="M 11.5 75 L 14 76.5 L 12.5 76 L 11.5 75 Z " /><path fill="rgb(202,169,126)" stroke="rgb(202,169,126)" stroke-width="0" opacity="0" d="M 24.5 76 L 32.5 78 L 36 77 Q 35 80 38 79 L 38 82 L 33.5 81 L 31.5 81 L 27.5 79 L 25.5 79 L 23 77.5 L 24.5 76 Z " /><path fill="rgb(208,173,130)" stroke="rgb(208,173,130)" stroke-width="0" opacity="0.00392156862745098" d="M 15.5 42 L 17 44.5 L 17 46.5 L 18 48.5 L 15.5 52 L 14 51.5 Q 16.5 50 13 48.5 L 15 44.5 Q 12.8 43.3 15.5 42 Z " /><path fill="rgb(208,173,130)" stroke="rgb(208,173,130)" stroke-width="0" opacity="0.00392156862745098" d="M 13.5 53 Q 16.1 52.2 15 55.5 L 14 57.5 L 14.5 59 Q 11.9 59.8 13 56.5 L 12 54.5 L 13.5 53 Z " /><path fill="rgb(208,173,130)" stroke="rgb(208,173,130)" stroke-width="0" opacity="0.00392156862745098" d="M 11.5 73 L 15 73.5 L 11.5 74 L 11.5 73 Z " /><path fill="rgb(208,173,130)" stroke="rgb(208,173,130)" stroke-width="0" opacity="0.00392156862745098" d="M 21.5 74 L 23.5 74 Q 27.3 72.8 26 76.5 L 23.5 77 L 20 76.5 L 21.5 74 Z " /><path fill="rgb(208,173,130)" stroke="rgb(208,173,130)" stroke-width="0" opacity="0.00392156862745098" d="M 29.5 74 L 34 74.5 L 29.5 75 L 29.5 74 Z " /><path fill="rgb(208,173,130)" stroke="rgb(208,173,130)" stroke-width="0" opacity="0.00392156862745098" d="M 35.5 74 L 38 74.5 L 35.5 75 L 35.5 74 Z " /><path fill="rgb(208,173,130)" stroke="rgb(208,173,130)" stroke-width="0" opacity="0.00392156862745098" d="M 13.5 75 L 16 75.5 L 13.5 76 L 13.5 75 Z " /><path fill="rgb(208,173,130)" stroke="rgb(208,173,130)" stroke-width="0" opacity="0.00392156862745098" d="M 36 77 Q 39 76 38 79 Q 35 80 36 77 Z " /><path fill="rgb(253,245,226)" stroke="rgb(253,245,226)" stroke-width="0" opacity="0.984313725490196" d="M 16.5 0 L 37.5 0 L 38 0.5 L 38 7 L 25.5 5 L 16.5 1 L 16.5 0 Z " /><path fill="rgb(253,245,226)" stroke="rgb(253,245,226)" stroke-width="0" opacity="0.984313725490196" d="M 36.5 47 L 38 50.5 L 37 50.5 L 36.5 47 Z " /><path fill="rgb(253,245,226)" stroke="rgb(253,245,226)" stroke-width="0" opacity="0.984313725490196" d="M 29.5 51 L 28 53.5 L 29.5 55 L 31 54.5 L 28.5 58 L 26 56.5 L 29.5 51 Z " /><path fill="rgb(253,245,226)" stroke="rgb(253,245,226)" stroke-width="0" opacity="0.984313725490196" d="M 24.5 64 L 27.5 65 L 29.5 64 L 31.5 65 L 33 64.5 L 33.5 66 L 35 65.5 L 33.5 68 L 28.5 66 L 25.5 67 L 23 68.5 L 21.5 71 L 21 69.5 L 22 67.5 L 21.5 66 L 23.5 66 L 26 65.5 L 24.5 64 Z " /><path fill="rgb(253,245,226)" stroke="rgb(253,245,226)" stroke-width="0" opacity="0.984313725490196" d="M 35.5 68 L 36 69.5 L 35 71.5 L 35.5 73 Q 32.9 73.8 34 70.5 L 35.5 68 Z " /><path fill="rgb(253,245,226)" stroke="rgb(253,245,226)" stroke-width="0" opacity="0.984313725490196" d="M 11.5 69 L 12.5 71 L 11.5 69 Z " /><path fill="rgb(253,245,226)" stroke="rgb(253,245,226)" stroke-width="0" opacity="0.984313725490196" d="M 16.5 71 Q 20.3 70.3 21 72.5 L 19.5 72 Q 15.5 72.8 16.5 71 Z " /><path fill="rgb(242,224,194)" stroke="rgb(242,224,194)" stroke-width="0" opacity="0.8156862745098039" d="M 30.5 6 L 33 6.5 L 30.5 7 L 30.5 6 Z " /><path fill="rgb(242,224,194)" stroke="rgb(242,224,194)" stroke-width="0" opacity="0.8156862745098039" d="M 35.5 7 L 38 7.5 L 35.5 8 L 35.5 7 Z " /><path fill="rgb(242,224,194)" stroke="rgb(242,224,194)" stroke-width="0" opacity="0.8156862745098039" d="M 24.5 38 L 33 38.5 L 24.5 39 L 24.5 38 Z " /><path fill="rgb(242,224,194)" stroke="rgb(242,224,194)" stroke-width="0" opacity="0.8156862745098039" d="M 25.5 40 L 30 40.5 L 24.5 42 L 25.5 40 Z " /><path fill="rgb(242,224,194)" stroke="rgb(242,224,194)" stroke-width="0" opacity="0.8156862745098039" d="M 26.5 66 L 28.5 66 L 34 68.5 Q 36.1 74.3 31.5 73 L 29 72 Q 30.3 69 26.5 70 L 24.5 69 L 22 70.5 L 24.5 67 L 26.5 66 Z " /><path fill="rgb(242,224,194)" stroke="rgb(242,224,194)" stroke-width="0" opacity="0.8156862745098039" d="M 20.5 68 L 21 70.5 L 20 70.5 L 20.5 68 Z " /><path fill="rgb(142,84,39)" stroke="rgb(142,84,39)" stroke-width="0" opacity="0.996078431372549" d="M 26.5 61 L 29 61.5 L 26.5 62 L 26.5 61 Z " /><path fill="rgb(186,155,115)" stroke="rgb(186,155,115)" stroke-width="0" opacity="0" d="M 0.5 41 L 3 45.5 L 1 45.5 Q 0.3 47.8 2.5 47 L 3.5 52 L 5 52.5 L 4 55.5 L 6 57.5 L 5 58.5 L 6.5 61 L 4 61.5 L 6 62.5 L 5 64.5 Q 8.2 67 7 73 Q 10 74.3 9 70.5 L 10.5 68 L 11 69.5 L 10 70.5 L 10 77 L 15 78 L 15.5 80 L 17 79.5 L 19.5 83 L 22 83.5 L 14.5 84 L 10 82 L 7.5 77 L 4 74.5 L 1 61.5 L 2 58.5 L 0 56.5 L 0.5 41 Z " /><path fill="rgb(198,164,122)" stroke="rgb(198,164,122)" stroke-width="0" opacity="0" d="M 7.5 47 L 10 48.5 Q 7.5 50 11 51.5 L 10 57.5 L 11 60.5 L 10 65.5 L 10.5 67 Q 7.8 65.8 9 60.5 L 9 58.5 L 8 55.5 L 8 53.5 L 7 50.5 L 8 48.5 L 7.5 47 Z " /><path fill="rgb(198,164,122)" stroke="rgb(198,164,122)" stroke-width="0" opacity="0" d="M 10.5 75 L 13 76.5 L 11.5 77 L 10.5 75 Z " /><path fill="rgb(198,164,122)" stroke="rgb(198,164,122)" stroke-width="0" opacity="0" d="M 14.5 76 L 22.5 77 L 26.5 80 L 28.5 80 Q 30.8 79.3 30 81.5 L 33.5 81 L 38 82 L 37.5 84 L 29.5 84 L 21.5 79 L 14.5 77 L 14.5 76 Z " /><path fill="rgb(252,252,249)" stroke="rgb(252,252,249)" stroke-width="0" opacity="0.9921568627450981" d="M 24.5 39 L 32.5 39 L 34 40.5 L 38 54.5 L 37 54.5 L 31.5 40 Q 25.5 38.5 24 41.5 L 19 56.5 L 12 70.5 L 14.5 72 L 16.5 72 L 21.5 71 L 21.5 72 L 13.5 73 L 11 72 L 19 49.5 L 24.5 39 Z " /><path fill="rgb(252,252,249)" stroke="rgb(252,252,249)" stroke-width="0" opacity="0.9921568627450981" d="M 28.5 48 L 32 59 L 24.5 59 L 24 57.5 L 28.5 48 Z M 28 53 L 27 56 Q 25 57 28 58 L 30 57 L 28 53 Z " /><path fill="rgb(252,252,249)" stroke="rgb(252,252,249)" stroke-width="0" opacity="0.9921568627450981" d="M 23.5 64 L 25.5 65 L 27.5 64 L 27.5 65 L 22 67.5 L 21.5 69 L 21 67.5 L 23.5 64 Z " /><path fill="rgb(252,252,249)" stroke="rgb(252,252,249)" stroke-width="0" opacity="0.9921568627450981" d="M 33.5 64 L 36.5 71 Q 39.1 70.3 38 73 L 35 71.5 L 33.5 64 Z " /><path fill="rgb(116,51,11)" stroke="rgb(116,51,11)" stroke-width="0" opacity="0.996078431372549" d="M 27.5 42 L 31 43.5 L 38 60.5 L 38 67.5 L 37 67.5 L 34.5 62 L 33.5 63 L 20 63 L 17.5 69 Q 15.3 69.8 16 67.5 L 22 55.5 L 25 44.5 L 27.5 42 Z M 30 44 L 29 47 L 26 46 L 23 55 L 24 58 L 23 57 L 22 60 L 24 59 L 26 60 L 27 60 L 26 62 L 30 61 L 32 62 L 34 59 L 30 44 Z " /><path fill="rgb(68,8,0)" stroke="rgb(68,8,0)" stroke-width="0" opacity="0.9921568627450981" d="M 25 41 L 32 41 L 32 43.5 L 38 59.5 L 37 59.5 L 31 42 L 26 42 L 26 43.5 L 16 68.5 Q 17.5 71.5 19 68.5 L 21.5 63 L 33 63.5 L 21 64 L 18.5 71 Q 13.1 72.9 14 69.5 L 25 41 Z " /><path fill="rgb(68,8,0)" stroke="rgb(68,8,0)" stroke-width="0" opacity="0.9921568627450981" d="M 29.5 47 L 34 57.5 L 32 56.5 L 29.5 47 Z " /><path fill="rgb(68,8,0)" stroke="rgb(68,8,0)" stroke-width="0" opacity="0.9921568627450981" d="M 25.5 50 L 26 52.5 L 24 53.5 L 25.5 50 Z " /><path fill="rgb(68,8,0)" stroke="rgb(68,8,0)" stroke-width="0" opacity="0.9921568627450981" d="M 23.5 55 L 24 56.5 L 22.5 59 L 22 57.5 L 23.5 55 Z " /><path fill="rgb(68,8,0)" stroke="rgb(68,8,0)" stroke-width="0" opacity="0.9921568627450981" d="M 34.5 63 L 36 65.5 L 35 65.5 L 34.5 63 Z " /><path fill="rgb(68,8,0)" stroke="rgb(68,8,0)" stroke-width="0" opacity="0.9921568627450981" d="M 36.5 67 L 38 70.5 L 36 69.5 L 36.5 67 Z " /><path fill="rgb(104,36,5)" stroke="rgb(104,36,5)" stroke-width="0" opacity="0.996078431372549" d="M 28.5 43 L 30 46.5 L 28 45.5 L 28.5 43 Z " /><path fill="rgb(104,36,5)" stroke="rgb(104,36,5)" stroke-width="0" opacity="0.996078431372549" d="M 25.5 48 L 26.5 50 Q 23.7 50.7 25.5 48 Z " /><path fill="rgb(104,36,5)" stroke="rgb(104,36,5)" stroke-width="0" opacity="0.996078431372549" d="M 20.5 53 L 22 55.5 L 20 56.5 L 21 54.5 L 20.5 53 Z " /><path fill="rgb(104,36,5)" stroke="rgb(104,36,5)" stroke-width="0" opacity="0.996078431372549" d="M 36.5 54 L 35.5 56 L 36.5 54 Z " /><path fill="rgb(104,36,5)" stroke="rgb(104,36,5)" stroke-width="0" opacity="0.996078431372549" d="M 33.5 58 L 33 59.5 Q 33.8 61.8 31.5 61 L 30.5 59 L 33.5 58 Z " /><path fill="rgb(104,36,5)" stroke="rgb(104,36,5)" stroke-width="0" opacity="0.996078431372549" d="M 24.5 59 L 26.5 60 Q 27.8 57.8 29 60.5 L 26.5 61 L 24.5 59 Z " /><path fill="rgb(104,36,5)" stroke="rgb(104,36,5)" stroke-width="0" opacity="0.996078431372549" d="M 34.5 62 L 35.5 64 L 33 63.5 L 34.5 62 Z " /><path fill="rgb(104,36,5)" stroke="rgb(104,36,5)" stroke-width="0" opacity="0.996078431372549" d="M 18.5 68 L 17.5 70 L 18.5 68 Z " /><path fill="rgb(174,145,105)" stroke="rgb(174,145,105)" stroke-width="0" opacity="0" d="M 0.5 57 L 2 60.5 L 2 62.5 L 3 72.5 L 6.5 77 L 9 78.5 L 10 82 L 14 83.5 L 0 84 L 0.5 57 Z " /><path fill="rgb(231,202,161)" stroke="rgb(231,202,161)" stroke-width="0" opacity="0.34901960784313724" d="M 24.5 69 L 29 70 Q 27.9 72.7 30.5 72 L 30.5 73 Q 25.2 73.8 23.5 71 L 22 71.5 L 24.5 69 Z " /><path fill="rgb(231,202,161)" stroke="rgb(231,202,161)" stroke-width="0" opacity="0.34901960784313724" d="M 34.5 73 L 38 73.5 L 34.5 74 L 34.5 73 Z " /></svg>